<?xml version="1.0" standalone="no"?>
<!DOCTYPE svg PUBLIC "-//W3C//DTD SVG 1.1//EN" "http://www.w3.org/Graphics/SVG/1.1/DTD/svg11.dtd" >
<svg xmlns="http://www.w3.org/2000/svg">
<metadata>
This is a custom SVG webfont generated by Font Squirrel.
Copyright   : Copyright c 199297 HewlettPackard All rights reserved
</metadata>
<defs>
<font id="TimesRoman" horiz-adv-x="1024" >
<font-face units-per-em="2048" ascent="1638" descent="-410" />
<missing-glyph horiz-adv-x="512" />
<glyph unicode=" "  horiz-adv-x="512" />
<glyph unicode="&#x09;" horiz-adv-x="512" />
<glyph unicode="&#xa0;" horiz-adv-x="512" />
<glyph unicode="!" horiz-adv-x="682" d="M266 89q0 47 32 79t79 32t79 -32t32 -79t-32 -79t-79 -32t-79 32t-32 79zM267 1240q0 66 29.5 104.5t80.5 38.5t81 -38.5t30 -104.5q0 -51 -4 -88q-36 -332 -92 -790h-15h-15q-56 458 -92 790q-4 37 -3 88z" />
<glyph unicode="&#x22;" horiz-adv-x="836" d="M158 1303q0 34 25 58t62 24t62.5 -24t25.5 -58q1 -25 -2 -42q-25 -160 -65 -380h-42q-40 220 -65 380q-3 17 -1 42zM503 1303q0 34 25 58t62 24t62.5 -24t25.5 -58q1 -25 -2 -42q-25 -160 -65 -380h-42q-40 220 -65 380q-3 17 -1 42z" />
<glyph unicode="#" d="M10 441v114h227l42 269h-210v114h228l66 418h118l-66 -418h278l66 418h118l-66 -419h205v-114h-223l-42 -269h206v-114h-224l-70 -441h-118l70 441h-278l-70 -441h-118l70 442h-209zM354 553l280 1l41 272l-280 -2z" />
<glyph unicode="$" d="M90 104v267h29q42 -163 126 -238t223 -75v585q-212 117 -287 201q-75 85 -75 206q0 135 108 222q101 81 254 88v132h72v-134q96 -5 173 -27q99 -28 156 -79v-228h-31q-23 133 -111 207q-75 63 -187 72v-500q229 -127 312 -221q84 -95 84 -232q0 -153 -126 -252 q-108 -84 -270 -96v-182h-72v180q-102 3 -210 31q-119 31 -168 73zM258 1092q0 -76 58 -137q47 -47 152 -111v461v-2q-85 -7 -142 -58q-68 -59 -68 -153zM540 62q95 13 157 61q81 65 81 181q0 96 -66 168q-51 57 -172 129v-539z" />
<glyph unicode="%" horiz-adv-x="1706" d="M125 858q0 193 137.5 345t312.5 152q101 0 157 -62l14 -18q129 -45 238 -18q128 30 224 131h98l-790 -1418h-98l717 1288q-91 -65 -244 -62q-55 -3 -114 8q10 -38 10 -86q0 -205 -129.5 -366t-294.5 -161q-100 0 -169 77.5t-69 189.5zM280 802q0 -68 33.5 -107t92.5 -39 q116 0 220 143t104 302q0 78 -23 125q-62 24 -126 66q-104 -10 -200 -158q-101 -157 -101 -332zM919 263q0 193 137.5 345t312.5 152q101 0 156.5 -62t55.5 -175q0 -205 -129.5 -366t-294.5 -161q-100 0 -169 77.5t-69 189.5zM1074 207q0 -68 33.5 -107t92.5 -39 q116 0 220 143t104 302q0 95 -34 143t-101 48q-112 0 -213.5 -157.5t-101.5 -332.5z" />
<glyph unicode="&#x26;" horiz-adv-x="1593" d="M86 296q0 154 127 287q105 109 276 184q-23 57 -39 112q-31 106 -31 192q0 137 87.5 224.5t224.5 87.5q121 0 199 -68.5t78 -174.5q0 -130 -102 -226q-77 -72 -213 -129l6 -12q92 -186 179 -307q37 -52 86 -108l18 25q162 240 169.5 338.5t-136.5 109.5v39h220h220v-39 q-73 -10 -112.5 -33.5t-66.5 -72.5q-55 -101 -135 -228q-74 -117 -129 -193q44 -50 99 -104q39 -38 92.5 -59.5t108.5 -21.5q60 0 108 27t86 82l30 -20q-44 -111 -126.5 -173.5t-185.5 -62.5q-64 0 -138.5 32t-126.5 82l-75 75q-101 -95 -199 -138q-114 -51 -256 -51 q-161 0 -252 86t-91 238zM278 367q0 -122 78 -204q77 -82 192 -82q71 0 158 45q67 34 129 88q-64 71 -112 136q-88 120 -182 305l-23 46q-92 -50 -153 -119q-87 -99 -87 -215zM580 1136q0 -60 32 -157q19 -61 50 -129q87 44 147 102q92 91 92 195q0 74 -46 121.5t-118 47.5 q-73 0 -115 -48t-42 -132z" />
<glyph unicode="'" horiz-adv-x="369" d="M98 1303q0 34 25 58t62 24t62.5 -24t25.5 -58q1 -25 -2 -42q-25 -160 -65 -380h-42q-40 220 -65 380q-3 17 -1 42z" />
<glyph unicode="(" horiz-adv-x="682" d="M98 510q0 275 136 510.5t367 362.5l22 -31q-197 -147 -274 -332.5t-76 -509.5q1 -323 79.5 -512.5t270.5 -329.5l-22 -31q-232 132 -368 368q-135 235 -135 505z" />
<glyph unicode=")" horiz-adv-x="682" d="M59 -332q197 147 274 332.5t76 509.5q-1 323 -79.5 512.5t-270.5 329.5l22 31q232 -132 368 -368q135 -235 135 -505q0 -275 -136 -510.5t-367 -362.5z" />
<glyph unicode="*" d="M141.5 814q9.5 31 38.5 48q16 8 52 17t73 13q26 2 84 28l92 43l-91 44q-58 25 -85 28q-37 4 -72.5 12.5t-51.5 17.5q-30 17 -39.5 47.5t6.5 58.5q16 27 47 34.5t61 -9.5q15 -8 41 -34.5t48 -56.5q16 -21 67 -59l85 -57l-7 103q-7 62 -18 87q-15 34 -25 70q-10 35 -10 53 q0 34 21.5 57.5t53.5 23.5t54 -23.5t22 -57.5q0 -18 -10 -53.5t-25 -69.5q-11 -24 -18 -87q-6 -51 -6 -102q41 25 84 56q50 36 66 58q22 30 48 56.5t42 35.5q29 16 60 9t47 -34q16 -28 6.5 -59t-38.5 -48q-16 -8 -52 -18q-36 -8 -73 -12q-26 -2 -84 -28l-92 -43l91 -44 q58 -25 85 -28q37 -4 72.5 -12.5t51.5 -17.5q30 -17 39.5 -47.5t-6.5 -58.5q-16 -27 -47 -34.5t-61 9.5q-15 8 -41 34.5t-48 56.5q-16 21 -67 59q-41 30 -84 56q0 -51 6 -102q7 -62 18 -87q15 -34 25 -69.5t10 -53.5q0 -34 -21.5 -57.5t-53.5 -23.5t-54 23.5t-22 57.5 q0 18 10 53.5t25 69.5q11 24 18 87q6 51 6 103l-84 -57q-50 -36 -66 -58q-22 -30 -49 -57q-25 -26 -41 -35q-29 -16 -60 -9t-47 34q-16 28 -6.5 59z" />
<glyph unicode="+" horiz-adv-x="1155" d="M61 451v134h449v449h134v-449h449v-134h-449v-449h-134v449h-449z" />
<glyph unicode="," horiz-adv-x="512" d="M115 91q0 51 33 84t85 33q76 0 121 -52.5t45 -142.5q0 -79 -65 -167.5t-160 -136.5l-22 39q98 60 140 134q18 34 29 75q5 20 -6.5 30t-33.5 5q-23 -5 -47 -5q-52 0 -85.5 29t-33.5 75z" />
<glyph unicode="-" horiz-adv-x="682" d="M80 396v129h504v-129h-504z" />
<glyph unicode="." horiz-adv-x="512" d="M143 91q0 48 33 81t81 33t81 -33t33 -81q0 -47 -33 -80t-81 -33t-81 33t-33 80z" />
<glyph unicode="/" horiz-adv-x="569" d="M-17 -27l465 1410h138l-465 -1410h-138z" />
<glyph unicode="0" d="M49 677q0 316 128 511t335 195q208 0 335.5 -195t127.5 -511q0 -315 -127.5 -509.5t-335.5 -194.5q-207 0 -335 194.5t-128 509.5zM245 669q1 -326 66.5 -484.5t200.5 -158.5q136 0 202 162.5t65 496.5q1 327 -65 486t-202 159q-135 0 -200.5 -163t-66.5 -498z" />
<glyph unicode="1" d="M227 1168v30l188 92l189 93l9 -6v-1160q0 -109 37.5 -142.5t160.5 -35.5v-39h-287h-287v39q123 2 161 36q37 33 37 142v902q0 83 -43.5 93.5t-164.5 -44.5z" />
<glyph unicode="2" d="M61 0v14v15l264 273q207 213 288 354t81 288q0 127 -82 208t-211 81q-101 0 -177.5 -70t-115.5 -198l-43 11q29 186 145 296.5t282 110.5q167 0 274 -103q106 -102 106 -263q0 -144 -107 -303q-106 -158 -399 -451l-108 -108h471q79 0 116.5 24.5t90.5 111.5l29 -11 l-56 -140l-56 -140h-792z" />
<glyph unicode="3" d="M88 86q0 36 19.5 53.5t54.5 19.5q56 3 149.5 -57.5t150.5 -57.5q73 0 125 27.5t92 87.5q55 84 56 198q0 145 -95 231.5t-255 86.5h-73l-2 24q174 57 258 142.5t84 206.5q0 99 -63 155.5t-173 56.5q-87 0 -166 -58.5t-126 -157.5l-31 8q44 152 149 241.5t238 89.5 q149 0 240.5 -76t91.5 -199q0 -116 -96 -213q-41 -42 -96 -75q88 -27 153 -90q110 -107 110 -282q0 -213 -153.5 -344t-403.5 -131q-121 0 -179.5 28t-58.5 85z" />
<glyph unicode="4" d="M25 343v66v67l642 908h46h47v-910h207v-131h-207v-343h-160v343h-575zM106 474h494v704l-493 -702z" />
<glyph unicode="5" d="M66 93q0 39 22 60t62 21h4q68 0 150 -63t150 -63q82 0 148 53.5t102 147.5q28 75 27 158q0 191 -155 305.5t-437 131.5l-5 21l227 491h399q51 0 73 10t43 43l22 -17l-42 -99l-42 -99h-445l-81 -176q258 -31 400 -137q183 -136 184 -406q0 -225 -151.5 -363.5 t-397.5 -138.5q-113 0 -185 33.5t-72 86.5z" />
<glyph unicode="6" d="M70 591q0 329 246 564q245 235 599 246l6 -33q-284 -36 -472 -273q-118 -149 -161 -333l8 7q134 108 289 108q171 0 272 -115t101 -310q0 -219 -120.5 -349t-323.5 -130q-200 0 -322 170t-122 448zM262 536q0 -234 76.5 -371t206.5 -137q111 0 171.5 88.5t60.5 250.5 q0 202 -71 308.5t-206 106.5q-58 0 -108 -17q-75 -26 -100 -65.5t-29 -138.5z" />
<glyph unicode="7" d="M41 1053l60 151l61 152h758v-20v-21l-438 -1331h-131l406 1217h-431q-95 0 -143 -31t-108 -133z" />
<glyph unicode="8" d="M115 310q0 107 82 208q63 77 185 165q-126 97 -184 174q-68 91 -68 191q0 147 108.5 241t277.5 94q156 0 256 -81.5t100 -208.5q0 -108 -95 -206q-68 -69 -179 -129q179 -138 243 -221q70 -93 70 -231q0 -146 -114 -239.5t-292 -93.5q-171 0 -280.5 94.5t-109.5 242.5z M272 317q0 -134 69 -211t190 -77q107 0 168 62t61 170q0 94 -58.5 163.5t-264.5 216.5q-74 -60 -110 -118q-55 -86 -55 -206zM279 1115q0 -81 48 -138.5t215 -179.5q82 55 124 111q65 84 65 196q0 104 -61.5 163.5t-169.5 59.5q-97 0 -159 -59.5t-62 -152.5z" />
<glyph unicode="9" d="M61 907q0 209 123.5 342.5t316.5 133.5q198 0 318.5 -164t120.5 -433q0 -336 -239 -576q-238 -240 -583 -251l-7 37q285 36 459 257q117 150 156 345l-10 -8q-132 -106 -285 -106q-169 0 -269.5 114.5t-100.5 308.5zM251 991q0 -202 69 -309t199 -107q52 0 98 14 q77 24 102 64.5t25 142.5v4q-1 269 -67 398.5t-203 129.5q-106 0 -164.5 -88t-58.5 -249z" />
<glyph unicode=":" horiz-adv-x="569" d="M166 91q0 48 33 81t81 33t81 -33t33 -81q0 -47 -33 -80t-81 -33t-81 33t-33 80zM166 829q0 48 33 81t81 33t81 -33t33 -81q0 -47 -33 -80t-81 -33t-81 33t-33 80z" />
<glyph unicode=";" horiz-adv-x="569" d="M164 90q0 51 33 84t85 33q76 0 121 -52.5t45 -141.5q0 -81 -66 -168.5t-161 -134.5l-20 40q95 56 138 131q19 32 29 74q5 20 -6 31t-31 6q-23 -5 -48 -5q-52 0 -85.5 29t-33.5 74zM168 829q0 48 33 81t81 33t81 -33t33 -81q0 -47 -33 -80t-81 -33t-81 33t-33 80z" />
<glyph unicode="&#x3c;" horiz-adv-x="1155" d="M57 455v63v63l1041 470v-137l-875 -392l875 -395v-142z" />
<glyph unicode="=" horiz-adv-x="1155" d="M61 246v134h1032v-134h-1032zM61 657v134h1032v-134h-1032z" />
<glyph unicode="&#x3e;" horiz-adv-x="1155" d="M57 -15v142l875 395l-875 392v137l1041 -470v-63v-63z" />
<glyph unicode="?" horiz-adv-x="909" d="M139 1089q0 126 97 210t243 84q170 0 269.5 -89.5t99.5 -241.5q0 -91 -45 -176.5t-171 -233.5q-54 -62 -85 -137.5t-43 -169.5h-36q0 96 19.5 176.5t66.5 180.5q65 139 86 211t21 159q0 113 -62 188t-155 75q-112 0 -169 -66t4 -125q54 -52 40 -112.5t-79 -60.5 q-48 0 -74.5 33.5t-26.5 94.5zM376 92q0 45 32 76.5t78 31.5t78 -31.5t32 -76.5t-32 -76t-78 -31t-78 31t-32 76z" />
<glyph unicode="@" horiz-adv-x="1886" d="M238 650q0 309 216.5 522.5t528.5 213.5q290 0 482 -173.5t192 -434.5q0 -202 -111 -342t-271 -140q-93 0 -145 69q-28 38 -36 85q-15 -25 -33 -46q-88 -108 -195 -108q-96 0 -151.5 63t-55.5 172q0 201 124 353.5t288 152.5q79 1 138 -101l19 73h142l-44 -171 q-90 -329 -91.5 -403t81.5 -74q99 0 179.5 129.5t80.5 287.5q0 218 -176.5 381t-412.5 163q-259 0 -418 -192.5t-159 -507.5q0 -241 171.5 -407t420.5 -166q115 0 221.5 26.5t189.5 74.5l24 -59q-80 -49 -207.5 -84.5t-224.5 -35.5q-323 0 -545 197t-222 482zM808 572 q0 -97 32.5 -143.5t99.5 -46.5q61 0 121.5 90.5t98.5 239.5q30 117 10 178t-89 61q-89 0 -181 -127.5t-92 -251.5z" />
<glyph unicode="A" horiz-adv-x="1479" d="M31 0v39q65 1 100 35t85 143l497 1163h20h20l505 -1163q50 -109 85.5 -143t101.5 -35v-39h-262h-262v39q123 1 145 35q7 11 7 30q0 39 -32 113l-95 225h-542l-61 -154q-49 -118 -49 -173q0 -16 4 -27q18 -47 144 -49v-39h-205h-206zM441 526h469l-235 559z" />
<glyph unicode="B" horiz-adv-x="1366" d="M35 0v39q123 2 161 36q37 33 37 142v922q0 109 -37.5 142.5t-160.5 35.5v39h302h271q267 0 402 -84t135 -251q0 -160 -110 -241q-65 -48 -171 -67q123 -24 203 -73q147 -92 147 -274t-139.5 -274t-415.5 -92h-322h-302zM442 182q0 -63 18.5 -84.5t74.5 -23.5l36 -1 q207 0 308 73t101 224t-109 224t-333 73h-96v-485zM442 747h185q156 0 232 63t76 193q0 141 -92.5 209.5t-283.5 68.5l-45 -2q-43 -2 -58 -19q-14 -17 -14 -67v-446z" />
<glyph unicode="C" horiz-adv-x="1366" d="M57 677q0 309 195.5 507.5t499.5 198.5q144 0 319 -61q24 -8 46 -8q21 0 39 8q38 16 53 55l2 6h38l22 -461h-47q-43 179 -162.5 279.5t-289.5 100.5q-222 0 -349.5 -165.5t-127.5 -455.5q0 -289 133.5 -454.5t365.5 -165.5q132 0 244 49.5t221 155.5l37 -37 q-114 -130 -250.5 -193.5t-300.5 -63.5q-315 0 -501.5 191t-186.5 514z" />
<glyph unicode="D" horiz-adv-x="1479" d="M33 0v39q112 2 146 36q34 33 34 142v922q0 109 -34 142.5t-146 35.5v39h284h240q413 0 629.5 -174t216.5 -505q0 -317 -215 -497t-594 -180h-277h-284zM422 190q0 -62 18.5 -84t73.5 -26l67 -5q286 0 442 157.5t156 444.5q0 288 -166 446t-470 158l-50 -2 q-43 -1 -57 -18.5t-14 -69.5v-1001z" />
<glyph unicode="E" horiz-adv-x="1251" d="M25 0v39q112 2 146 35.5t34 142.5v922q0 109 -34 142.5t-146 35.5v39h389h698l3 -149l4 -149h-49q-17 136 -78 178t-244 42h-261q-44 0 -58.5 -14.5t-14.5 -58.5v-452h295q136 0 182 37t61 158h47v-237v-237h-47q-15 121 -61 158t-182 37h-295v-497q0 -56 19 -75t75 -19 h193q216 0 304.5 51t160.5 217h56l-45 -173l-46 -173h-717h-389z" />
<glyph unicode="F" horiz-adv-x="1139" d="M25 0v39q112 2 146 36q34 33 34 142v922q0 109 -34 142.5t-146 35.5v39h389h698l3 -149l4 -149h-49q-17 136 -78 178t-244 42h-261q-44 0 -58.5 -14.5t-14.5 -58.5v-452h278q136 0 182 37t61 158h47v-237v-237h-47q-15 121 -61 158t-182 37h-278v-452q0 -109 37.5 -142.5 t160.5 -35.5v-39h-293h-294z" />
<glyph unicode="G" horiz-adv-x="1479" d="M66 677q0 309 196.5 507.5t501.5 198.5q148 0 329 -60q26 -9 49 -9q22 0 40 8q39 16 50 57l1 4h38l20 -434h-47q-49 168 -165.5 260.5t-280.5 92.5q-231 0 -363.5 -167t-132.5 -459q0 -291 140.5 -457.5t385.5 -166.5q126 1 230 46q29 13 40.5 32t11.5 54v324 q0 109 -34 142.5t-144 35.5v39h260h260v-39q-88 -1 -115 -35t-27 -143v-400q-249 -135 -507 -136q-337 0 -537 191t-200 514z" />
<glyph unicode="H" horiz-adv-x="1479" d="M39 0v39q112 2 146 36q34 33 34 142v922q0 109 -34 142.5t-146 35.5v39h293h294v-39q-123 -2 -160.5 -35.5t-37.5 -142.5v-406h621v406q0 109 -37.5 142.5t-160.5 35.5v39h293h294v-39q-112 -2 -146 -35.5t-34 -142.5v-922q0 -109 34 -142.5t146 -35.5v-39h-293h-294v39 q123 2 160.5 35.5t37.5 142.5v432h-621v-432q0 -109 37.5 -142.5t160.5 -35.5v-39h-293h-294z" />
<glyph unicode="I" horiz-adv-x="682" d="M37 0v39q123 2 161 36q37 33 37 142v922q0 109 -37.5 142.5t-160.5 35.5v39h302h303v-39q-123 -2 -160.5 -35.5t-37.5 -142.5v-922q0 -109 37.5 -142.5t160.5 -35.5v-39h-302h-303z" />
<glyph unicode="J" horiz-adv-x="797" d="M20 121q0 40 29.5 70.5t69.5 30.5q38 0 60 -17t35 -58q20 -62 32 -79.5t34 -17.5q43 0 62 34t19 113v942q0 109 -37.5 142.5t-160.5 35.5v39h297h298v-39q-117 -2 -152.5 -35.5t-35.5 -142.5v-803q0 -166 -94.5 -265t-252.5 -99q-89 0 -146 42t-57 107z" />
<glyph unicode="K" horiz-adv-x="1479" d="M70 0v39q114 2 149 36q35 33 35 142v922q0 109 -35 142.5t-149 35.5v39h295h296v-39q-123 -2 -160.5 -35.5t-37.5 -142.5v-432l392 361q139 127 139 186q0 60 -142 63v39h268h268v-39q-84 -1 -146.5 -35t-182.5 -143l-388 -356l526 -566q102 -109 155.5 -143t126.5 -35 v-39h-308h-309v39q147 9 147 56q0 45 -126 175l-361 378l-59 -55v-376q0 -109 37.5 -142.5t160.5 -35.5v-39h-295h-296z" />
<glyph unicode="L" horiz-adv-x="1251" d="M25 0v39q112 2 146 35.5t34 142.5v922q0 109 -34 142.5t-146 35.5v39h293h294v-39q-123 -2 -160.5 -35.5t-37.5 -142.5v-967q0 -56 19 -75t75 -19h142q249 0 348 53t173 225h53l-45 -178l-46 -178h-719h-389z" />
<glyph unicode="M" horiz-adv-x="1821" d="M25 0v39q123 2 160.5 51t37.5 207v762q0 158 -37.5 207t-160.5 51v39h203h204l474 -1025l455 1025h203h204v-39q-110 -1 -144 -35t-34 -143v-922q0 -109 34 -143t144 -35v-39h-292h-293v39q123 2 160.5 35.5t37.5 142.5v952l-518 -1169h-16h-16l-518 1121v-824 q0 -158 37.5 -207t160.5 -51v-39h-243h-243z" />
<glyph unicode="N" horiz-adv-x="1479" d="M25 1317v39h179h179l779 -977v680q0 157 -37.5 206.5t-160.5 51.5v39h243h243v-39q-123 -2 -160.5 -51t-37.5 -207v-1081h-16h-16l-905 1134v-815q0 -158 37.5 -207t160.5 -51v-39h-243h-243v39q123 2 160.5 51t37.5 207v918q-43 47 -73 67q-51 34 -127 35z" />
<glyph unicode="O" horiz-adv-x="1479" d="M70 677q0 309 188 507.5t481 198.5q294 0 482 -198.5t188 -507.5t-188 -507t-482 -198q-293 0 -481 198t-188 507zM304 677q0 -295 116 -463.5t319 -168.5q204 0 320 168.5t116 463.5q0 296 -116 464.5t-320 168.5q-203 0 -319 -168.5t-116 -464.5z" />
<glyph unicode="P" horiz-adv-x="1139" d="M33 0v39q108 1 141 35t33 143v922q0 109 -33 143t-141 35v39h278h258q253 0 397 -96t144 -264q0 -197 -138.5 -300.5t-402.5 -103.5q-83 0 -153 5v-380q0 -109 37.5 -142.5t160.5 -35.5v-39h-290h-291zM416 678q44 -6 89 -6q194 0 288.5 78t94.5 239q0 143 -98.5 218.5 t-284.5 75.5l-16 -1q-44 -3 -58.5 -19t-14.5 -61v-524z" />
<glyph unicode="Q" horiz-adv-x="1479" d="M70 677q0 309 188 507.5t481 198.5q294 0 482 -198.5t188 -507.5t-188 -507q-142 -150 -345 -186q102 -135 222 -211q153 -98 327 -98h10v-37q-50 -2 -98 -2q-285 0 -464 82q-176 81 -330 280q-164 44 -285 172q-188 198 -188 507zM304 677q0 -295 116 -463.5t319 -168.5 q204 0 320 168.5t116 463.5q0 296 -116 464.5t-320 168.5q-203 0 -319 -168.5t-116 -464.5z" />
<glyph unicode="R" horiz-adv-x="1366" d="M35 0v39q108 2 141 36q33 33 33 142v922q0 109 -33 142.5t-141 35.5v39h278h298q238 0 373 -94.5t135 -260.5q0 -172 -147 -270q-87 -57 -212 -82l341 -432q87 -110 134 -143.5t112 -34.5v-39h-106h-224l-478 633q-63 0 -121 -4v-412q0 -109 37.5 -142.5t160.5 -35.5v-39 h-290h-291zM418 700q22 2 43 0q221 0 328.5 74.5t107.5 228.5q0 136 -90 208t-260 72q-30 0 -59 -4q-42 -5 -56 -22.5t-14 -63.5v-493z" />
<glyph unicode="S" horiz-adv-x="1139" d="M86 407h47q63 -177 171.5 -269.5t251.5 -92.5q106 0 174 64t68 165q0 98 -65 171q-64 73 -240 173q-204 116 -276 203t-72 216q0 152 103.5 249t265.5 97q98 0 231 -56q32 -14 57 -14q14 1 26 5q32 12 43 53l3 12h43l48 -434h-53q-34 154 -142 253t-242 99 q-91 0 -149 -54t-58 -138q0 -82 54 -143t201 -145q252 -144 341 -243q89 -98 89 -232q0 -164 -121.5 -269t-310.5 -105q-122 0 -271 60q-26 10 -47 10q-16 0 -29 -6q-31 -14 -34 -52l-1 -12h-44z" />
<glyph unicode="T" horiz-adv-x="1251" d="M35 1006l5 175l6 175h578h579l5 -175l6 -175h-48q-29 164 -90.5 214t-235.5 50h-111v-1053q0 -109 37 -142.5t157 -35.5v-39h-297h-298v39q119 2 156 36q36 33 36 142v1053h-111q-174 0 -235.5 -50t-90.5 -214h-48z" />
<glyph unicode="U" horiz-adv-x="1479" d="M29 1317v39h296h297v-39q-123 -2 -160.5 -35.5t-37.5 -142.5v-671q0 -212 85 -309.5t269 -97.5q192 0 288 101.5t96 305.5v591q0 158 -37.5 207t-160.5 51v39h240h240v-39q-119 -2 -155.5 -51t-36.5 -207v-568q1 -261 -128 -390t-390 -129q-264 0 -391 127t-128 392v648 q0 109 -35.5 142.5t-150.5 35.5z" />
<glyph unicode="V" horiz-adv-x="1479" d="M33 1317v39h271h272v-39q-124 -1 -146 -35q-7 -11 -7 -29q0 -39 34 -114l367 -851l300 780q45 114 45 169q1 19 -5 31q-20 47 -147 49v39h205h206v-39q-67 -1 -101.5 -34.5t-79.5 -143.5l-460 -1161h-16h-16l-517 1161q-51 110 -90 143.5t-115 34.5z" />
<glyph unicode="W" horiz-adv-x="1933" d="M10 1317v39h268h269v-39q-122 -2 -147 -36q-9 -13 -9 -36q0 -39 25 -106l283 -780l219 614l-64 166q-43 109 -82.5 143t-124.5 35v39h276h277v-39q-122 -1 -146 -35q-9 -12 -9 -35q0 -39 27 -108l293 -774l241 703q37 108 37 163q0 23 -7 37q-22 47 -147 49v39h208h209 v-39q-66 -1 -99 -35t-74 -143l-412 -1161h-16h-16l-323 862l-315 -862h-16h-16l-419 1161q-41 109 -77 143t-113 35z" />
<glyph unicode="X" horiz-adv-x="1479" d="M20 0v39q68 1 116 35t139 143l364 452l-314 453q-79 113 -131.5 150.5t-144.5 44.5v39h307h307v-39h-10q-131 -1 -145 -53q-2 -7 -1 -14q0 -57 89 -182l170 -241l234 291q79 94 79 140q0 7 -2 13q-14 44 -140 46v39h244h245v-39q-92 -1 -147.5 -35t-145.5 -143l-313 -388 l377 -534q79 -109 127 -143t125 -35v-39h-309h-310v39q150 2 164 49q2 5 2 12q0 52 -95 188l-209 303l-244 -303q-106 -128 -106 -184q0 -6 1 -10q11 -54 156 -55v-39h-239h-240z" />
<glyph unicode="Y" horiz-adv-x="1479" d="M45 1317v39h282h283v-39q-120 -2 -135 -35q-3 -6 -3 -14q0 -39 59 -129l282 -428l231 357q93 142 93 192q0 5 -1 8q-8 47 -133 49v39h219h219v-39q-78 -1 -124.5 -35t-120.5 -143l-342 -511v-411q0 -109 37.5 -142.5t160.5 -35.5v-39h-302h-303v39q123 2 160.5 35.5 t37.5 142.5v381l-367 541q-77 109 -121 143t-112 35z" />
<glyph unicode="Z" horiz-adv-x="1251" d="M18 0v16v16l896 1246h-447q-174 0 -250 -59t-103 -215h-48l19 176l19 176h690h394v-16v-16l-895 -1246h496q192 0 265 53.5t121 227.5h47l-25 -179l-25 -180h-760h-394z" />
<glyph unicode="[" horiz-adv-x="682" d="M180 -319v1674h432v-52h-194q-33 0 -56 -23t-23 -56v-1411q0 -34 23 -57t57 -23h193v-52h-432z" />
<glyph unicode="\" horiz-adv-x="569" d="M-17 1383h138l465 -1410h-138z" />
<glyph unicode="]" horiz-adv-x="682" d="M70 -267h193q34 0 57 23t23 57v1411q0 33 -23 56t-56 23h-194v52h432v-1674h-432v52z" />
<glyph unicode="^" horiz-adv-x="961" d="M49 608l369 747h63h63l370 -747h-139l-294 593l-293 -593h-139z" />
<glyph unicode="_" d="M0 -153h1024v-102h-1024v102z" />
<glyph unicode="`" horiz-adv-x="682" d="M39 1327q0 22 14 39q20 26 52 26.5t63 -24.5l9 -9l322 -322h-82l-330 209l-10 8q-29 22 -36 56z" />
<glyph unicode="a" horiz-adv-x="909" d="M76 196q0 101 70.5 174.5t228.5 139.5l213 88v109q0 96 -38 141t-120 45q-76 0 -117 -41q-29 -29 -29 -67q0 -16 5 -33q5 -19 5 -36q0 -30 -16 -54q-26 -38 -77 -38q-36 0 -61 25.5t-25 62.5q0 94 99 162t236 68q150 0 227 -70.5t77 -208.5v-472q0 -52 13.5 -73.5 t46.5 -21.5q22 0 46.5 11t44.5 29v-54q-35 -44 -86 -72t-96 -28q-64 0 -98 40q-32 37 -34 110q-39 -39 -83 -70q-115 -82 -213 -82q-96 0 -157.5 60.5t-61.5 155.5zM257 260q0 -73 37.5 -118t98.5 -45q75 0 150 52q27 18 36 37q9 20 9 57v305l-114 -43q-104 -39 -160.5 -103 t-56.5 -142z" />
<glyph unicode="b" d="M6 1278v30q88 23 151 42q64 19 151 49l9 -6v-607l24 29q104 127 260 127t256.5 -128.5t100.5 -328.5q0 -206 -139.5 -355.5t-332.5 -149.5q-116 0 -228.5 41t-112.5 84v1050q-1 89 -25 111q-17 15 -63 15q-22 0 -51 -3zM317 146q0 -21 5 -33t18 -21q66 -47 173 -47 q133 0 200 94.5t67 280.5q0 180 -71 287t-191 107q-103 0 -178 -81q-12 -13 -17.5 -27.5t-5.5 -32.5v-527z" />
<glyph unicode="c" horiz-adv-x="909" d="M51 434q0 217 131.5 362.5t328.5 145.5q119 0 211.5 -62.5t92.5 -142.5q0 -40 -26 -65.5t-67 -25.5q-44 0 -69 28.5t-40 95t-44 90t-96 23.5q-113 0 -188.5 -105t-75.5 -261q0 -167 90.5 -279t225.5 -112q80 0 146 43.5t144 148.5l28 -17q-73 -162 -173.5 -241.5 t-231.5 -79.5q-170 0 -278.5 127.5t-108.5 326.5z" />
<glyph unicode="d" d="M55 429q0 209 125.5 361t297.5 152h2q104 0 215 -89v302q-1 89 -25 111q-17 15 -63 15q-22 0 -51 -3v30q88 23 151 42q64 19 151 49l9 -6v-1158q0 -74 25.5 -95.5t113.5 -21.5v-33l-149 -52l-150 -53l-9 6v133q-101 -139 -266 -139q-173 0 -275 121.5t-102 327.5z M233 495q0 -187 75.5 -298t202.5 -111q80 0 137 46q27 22 37 47t10 72v391q0 45 -13 91.5t-31 70.5q-63 80 -169 80q-114 0 -181.5 -105.5t-67.5 -283.5z" />
<glyph unicode="e" horiz-adv-x="909" d="M51 435q0 222 118.5 364.5t302.5 142.5q164 0 262 -111q89 -99 95 -264h-631q0 -205 87.5 -326.5t234.5 -121.5q97 0 168 49.5t147 169.5l33 -20q-76 -176 -181.5 -257t-257.5 -81q-173 0 -275.5 123.5t-102.5 331.5zM201 633h419q-9 100 -46 158q-50 79 -148 79h-3 q-103 0 -164 -82q-45 -60 -58 -155z" />
<glyph unicode="f" horiz-adv-x="682" d="M41 0v30q106 2 138.5 32.5t32.5 127.5v666h-169v65h169q0 237 92 357.5t273 120.5q87 0 146.5 -36t59.5 -88q0 -39 -24 -63t-63 -24q-24 0 -43.5 16t-45.5 56q-30 46 -52.5 63.5t-52.5 17.5q-61 0 -89.5 -45t-28.5 -141v-234h249v-65h-249v-666q0 -97 36 -127.5 t154 -32.5v-30h-266h-267z" />
<glyph unicode="g" d="M57 -247q0 55 49 115.5t155 137.5l-23 9q-88 34 -88 99q0 32 39.5 78t147.5 142q-55 21 -97 56q-97 82 -97 228q0 142 96.5 233t247.5 91q97 0 173 -36q28 -13 60.5 -22t51.5 -9h191v-81h-176q45 -69 45 -164q0 -142 -91 -232.5t-233 -90.5h-9q-56 0 -105 11 q-51 -28 -86 -67q-35 -38 -35 -67q0 -28 54 -41t186 -17l180 -5q116 -4 184 -63t68 -157q0 -135 -162.5 -241t-370.5 -106q-149 0 -252 57.5t-103 141.5zM199 -180q0 -69 83.5 -109t226.5 -40q166 0 272 55.5t106 143.5q0 53 -43 74t-162 25l-180 5q-122 5 -202 21 q-42 -42 -71.5 -93t-29.5 -82zM308 688q0 -151 58.5 -240.5t157.5 -89.5q70 0 106.5 50t36.5 144q0 151 -53 241t-142 90q-75 0 -119.5 -53t-44.5 -142z" />
<glyph unicode="h" d="M18 1278v30q86 23 147 42q62 19 147 49l9 -6v-617q63 70 125 111q84 55 165 55q130 0 196 -83.5t66 -246.5v-422q0 -98 23.5 -128.5t100.5 -31.5v-30h-213h-213v30q81 1 105.5 31.5t24.5 128.5v427q0 109 -40 160.5t-126 51.5q-54 0 -108 -33q-49 -31 -106 -95v-511 q0 -98 24.5 -128.5t105.5 -31.5v-30h-214h-215v30q79 1 103 32q24 30 24 128v965q0 89 -23 111q-16 15 -63 15q-20 0 -45 -3z" />
<glyph unicode="i" horiz-adv-x="569" d="M33 0v30q99 2 129 33q30 30 30 127v488q0 94 -28 116q-14 11 -46 11q-31 0 -78 -10v33q92 29 158 54l157 62l9 -6v-748q0 -97 29 -127.5t123 -32.5v-30h-241h-242zM161 1294q0 44 30 74.5t74 30.5t74 -30.5t30 -74.5t-30 -74t-74 -30t-74 30t-30 74z" />
<glyph unicode="j" horiz-adv-x="569" d="M-142 -333q0 35 23 57t59 22q24 0 47.5 -15t50 -48t45.5 -46.5t38 -13.5q59 0 79 50.5t20 199.5v805q0 95 -28 116q-14 11 -46 11q-31 0 -78 -10v33q92 30 158 54l157 62l9 -6v-925q0 -227 -87.5 -343t-259.5 -116q-82 0 -134.5 31.5t-52.5 81.5zM189 1294q0 44 30 74.5 t74 30.5t74 -30.5t30 -74.5t-30 -74t-74 -30t-74 30t-30 74z" />
<glyph unicode="k" d="M14 1278v30q94 23 162 42t161 49l9 -6v-855l233 208q88 77 88 110q0 35 -102 35v30h207h208v-30q-94 -2 -158.5 -34t-180.5 -134l-161 -146l309 -387q81 -98 126.5 -128.5t113.5 -31.5v-30h-220h-220v30h10q69 0 69 27q0 28 -69 117l-253 331v-315q0 -98 29 -128.5 t123 -31.5v-30h-241h-242v30q99 1 129 31.5t30 128.5v965q0 91 -28 113q-19 14 -70 14q-27 0 -62 -4z" />
<glyph unicode="l" horiz-adv-x="569" d="M39 1278v30q94 23 162 42t161 49l9 -6v-1203q0 -97 29 -127.5t123 -32.5v-30h-241h-242v30q99 2 129 33q30 30 30 127v965q0 91 -28 113q-18 14 -67 14q-28 0 -65 -4z" />
<glyph unicode="m" horiz-adv-x="1593" d="M33 0v30q91 1 119 32q27 30 27 128v512q1 93 -25 115q-13 12 -44 12q-28 0 -70 -10v33q86 23 148 42q62 20 147 50l9 -6v-152q98 80 162 114q78 42 143 42q124 0 188 -88q24 -34 40 -82q83 85 152 124q81 46 168 46q124 0 187.5 -88t63.5 -260v-404q0 -98 26.5 -128.5 t112.5 -31.5v-30h-225h-225v30q86 1 112.5 31.5t26.5 128.5v438q0 107 -35.5 157t-111.5 50q-72 0 -129 -31q-52 -29 -100 -88v-526q0 -97 29 -127.5t123 -32.5v-30h-233h-234v30q89 2 116 32.5t27 127.5v441q0 105 -35 154.5t-110 49.5q-70 0 -128 -30q-52 -25 -104 -84 v-531q0 -98 26.5 -128.5t112.5 -31.5v-30h-228h-229z" />
<glyph unicode="n" d="M33 816v33q84 24 144 44q61 20 144 51l9 -6v-161q76 73 141 115q81 50 146 50q125 0 188.5 -80.5t63.5 -237.5v-434q0 -98 23.5 -128.5t100.5 -31.5v-30h-213h-213v30q81 1 105.5 31.5t24.5 128.5v437q0 104 -38 153t-120 49q-42 0 -93 -30q-46 -27 -109 -87v-522 q0 -98 24.5 -128.5t105.5 -31.5v-30h-214h-215v30q79 1 103 32q24 30 24 128v509q1 85 -27 109q-16 14 -50 15q-23 0 -55 -7z" />
<glyph unicode="o" d="M59 453q0 214 127 351.5t325 137.5t325 -133.5t127 -341.5q0 -213 -127 -350t-325 -137t-325 133t-127 340zM243 556q0 -237 79.5 -378t211.5 -141q112 0 178.5 89t66.5 238q0 238 -79 379.5t-212 141.5q-112 0 -178.5 -89.5t-66.5 -239.5z" />
<glyph unicode="p" d="M10 -408q91 1 118.5 31.5t27.5 128.5v936q0 81 -24 103q-18 16 -68 16q-18 0 -40 -2v33q86 26 146 49l146 57l9 -6v-158l37 44q110 118 269 118q146 0 239.5 -128t93.5 -327q0 -207 -126 -357t-299 -150q-120 1 -211 83v-311q0 -97 33 -127.5t142 -32.5v-35h-246h-247v35 zM328 194q0 -21 5 -35t18 -29q72 -84 182 -85q116 0 184.5 102.5t68.5 275.5q0 180 -70.5 287.5t-188.5 107.5q-98 0 -176 -76q-12 -11 -17.5 -25.5t-5.5 -33.5v-489z" />
<glyph unicode="q" d="M49 429q0 209 133.5 361t316.5 152h3q126 0 238 -72l115 71h17v-20v-1169q0 -98 24 -128.5t103 -31.5v-35h-237h-237v35q109 2 142 32.5t33 127.5v390l-11 -13q-121 -149 -308 -149q-152 0 -242 121.5t-90 327.5zM227 488q0 -175 71.5 -279.5t191.5 -104.5q102 0 166 54 q26 21 35 46t9 71v416q0 45 -16 88t-39 61q-56 43 -142 43q-126 0 -201 -107.5t-75 -287.5z" />
<glyph unicode="r" horiz-adv-x="682" d="M10 0v30q91 1 119 32q27 30 27 128v488q0 94 -26 116q-14 11 -45 11q-28 0 -71 -10v33q89 30 152 54l151 62l9 -6v-192q51 81 103 129q72 67 147 67q50 0 79.5 -30t29.5 -81q0 -41 -21.5 -65.5t-56.5 -24.5q-20 0 -38.5 8t-37.5 25.5t-36 28t-27 10.5q-34 0 -70 -37 q-22 -23 -47 -61q-11 -16 -17 -36.5t-6 -38.5v-450q0 -98 33.5 -128.5t143.5 -31.5v-30h-247h-248z" />
<glyph unicode="s" horiz-adv-x="797" d="M104 -8v318h37q22 -140 89 -213t173 -73q78 0 122.5 39.5t44.5 110.5q0 60 -41 101t-171 112q-148 82 -201 145q-53 62 -53 157q0 111 80 182t204 71h4q69 0 162 -36q17 -7 31 -4t24 16l3 4h24l9 -277h-32q-26 125 -82 187.5t-143 62.5q-69 0 -113 -37t-44 -96 q0 -63 38 -104q38 -40 158 -106q167 -92 227 -157q59 -64 59 -153q0 -112 -85 -187t-213 -75q-81 0 -204 36q-21 6 -40.5 1.5t-31.5 -17.5l-7 -8h-28z" />
<glyph unicode="t" horiz-adv-x="569" d="M27 867q0 12 11 20q73 55 117 104q64 72 136 180l10 15q8 -1 11.5 -7t3.5 -21v-237h207v-65h-207v-599q0 -92 24 -132t80 -40q34 0 68.5 20t57.5 53l26 -23q-50 -79 -108 -116t-132 -37q-88 0 -138 59q-50 58 -50 161v654h-105q-12 0 -12 12v-1z" />
<glyph unicode="u" d="M18 891v30h149h150v-645q0 -89 39 -134t116 -45q50 0 105 28q34 18 70 46q15 12 24 31t9 40v489q0 97 -28.5 127.5t-122.5 32.5v30h161h162v-700q0 -76 24 -98q21 -19 86 -19h19v-29l-141 -47l-141 -48l-9 6v167q-97 -100 -155.5 -137t-138.5 -37q-119 0 -185 75t-66 210 v467q0 98 -24 128.5t-103 31.5z" />
<glyph unicode="v" d="M39 891v30h200h200v-30q-79 -4 -92 -31q-4 -7 -4 -19q0 -31 26 -94l204 -511l168 431q46 115 46 163q0 9 -2 16q-10 43 -96 45v30h143h144v-30q-41 -1 -66 -31t-66 -129l-299 -746q-5 -13 -19 -13q-13 0 -19 13l-311 746q-42 98 -72 128.5t-85 31.5z" />
<glyph unicode="w" horiz-adv-x="1479" d="M43 891v30h183h183v-30q-77 -4 -91 -31q-4 -8 -5 -21q0 -31 23 -92l199 -525l188 420l-35 89q-39 99 -67 129t-80 31v30h204h204v-30q-95 -5 -109 -43q-3 -9 -4 -22q0 -44 37 -136l172 -456l166 433q46 117 46 165q0 8 -1 14q-9 43 -92 45v30h129h130v-30q-30 -1 -51 -31 t-60 -129l-292 -746q-5 -13 -19 -13t-19 13l-222 563l-257 -563q-6 -13 -20 -13q-13 0 -19 13l-297 746q-41 99 -64.5 129t-59.5 31z" />
<glyph unicode="x" d="M35 0v30q47 1 78 25t86 103l216 317l-151 240q-66 104 -106.5 137.5t-106.5 38.5v30h212h213v-30q-80 -1 -86 -39q-1 -3 -1 -7q0 -39 59 -126l65 -100l63 93q67 95 67 135q0 42 -77 44v30h163h164v-30q-64 -1 -104.5 -31.5t-109.5 -128.5l-122 -179l236 -362 q64 -98 101 -128.5t95 -31.5v-30h-210h-210v30q78 4 85 31q1 3 1 7q0 30 -49 106l-148 234l-166 -244q-42 -62 -42 -93q0 -6 2 -10q10 -29 84 -31v-30h-150h-151z" />
<glyph unicode="y" d="M29 891v30h209h210v-30q-92 -4 -108 -31q-5 -9 -5 -22q0 -32 26 -91l228 -511l176 499q26 73 26 107q0 11 -3 18q-11 28 -87 31v30h137h138v-30q-38 -1 -59 -25t-53 -103l-278 -730q-99 -275 -179 -376.5t-197 -101.5q-64 0 -105 32.5t-41 82.5q0 45 25.5 69t73.5 24h6 q28 0 73 -18.5t73 -18.5q17 0 35 12.5t33 34.5q54 84 101 214l18 59l-319 685q-47 99 -76 129t-78 31z" />
<glyph unicode="z" horiz-adv-x="909" d="M55 0v14v14l553 832h-287q-94 0 -127 -34.5t-47 -146.5h-37l3 121l4 121h389h321v-14v-14l-553 -832h299q129 0 176 42.5t71 181.5l35 -8l-14 -138l-14 -139h-451h-321z" />
<glyph unicode="{" horiz-adv-x="983" d="M205 509v2q114 27 144.5 84t30.5 240v250q0 178 65.5 238.5t271.5 73.5v-26q-96 -6 -140.5 -86.5t-44.5 -247.5v-250q0 -155 -57 -211q-35 -34 -129 -66q94 -32 129 -66q57 -56 57 -211v-250q0 -167 44.5 -247.5t140.5 -86.5v-26q-206 13 -271.5 73.5t-65.5 238.5v250 q0 183 -30.5 240t-144.5 84z" />
<glyph unicode="|" horiz-adv-x="410" d="M137 -512v2047h136v-2047h-136z" />
<glyph unicode="}" horiz-adv-x="983" d="M266 -351q96 6 140.5 86.5t44.5 247.5v250q0 155 57 211q35 34 129 66q-94 32 -129 66q-57 56 -57 211v250q0 167 -44.5 247.5t-140.5 86.5v26q206 -13 271.5 -73.5t65.5 -238.5v-250q0 -183 30.5 -240t144.5 -84v-2q-114 -27 -144.5 -84t-30.5 -240v-250 q0 -178 -66 -239q-65 -60 -271 -73v26z" />
<glyph unicode="~" horiz-adv-x="1108" d="M82 482q43 81 109.5 126.5t141.5 45.5q50 0 123 -22.5t130 -54.5q48 -27 103 -46t87 -19q49 0 86 32.5t92 121.5l74 -102q-59 -101 -115.5 -142t-135.5 -41q-42 0 -115 25.5t-138 62.5q-40 23 -95 38.5t-95 15.5q-54 0 -94.5 -32t-83.5 -111z" />
<glyph unicode="&#xa1;" horiz-adv-x="682" d="M199 -309q0 51 4 87q36 331 92 788h15h15q56 -457 92 -788q4 -36 3 -87q0 -66 -29.5 -104.5t-80.5 -38.5t-81 38.5t-30 104.5zM199 842q0 47 32 79t79 32t79 -32t32 -79t-32 -79t-79 -32t-79 32t-32 79z" />
<glyph unicode="&#xa2;" d="M109 452q0 214 126.5 351t324.5 137q52 1 100 -11l91 258h73l-98 -278q32 -13 61 -32q98 -63 98 -147q0 -37 -24 -62t-58 -25q-48 0 -85 35t-42 85l-1 4l-214 -607q57 -28 123 -28q89 0 157 44.5t143 151.5l25 -18q-61 -153 -164.5 -241.5t-221.5 -88.5q-64 0 -120 16 l-99 -281h-73l108 306q-62 35 -114 92q-116 132 -116 339zM269 531q0 -170 91 -285q20 -25 43 -46l-1 1l230 650q-34 31 -83 31q-128 0 -204 -95.5t-76 -255.5z" />
<glyph unicode="&#xa3;" d="M25 107q0 72 52 115.5t137 43.5q43 0 97 -13l1 42q0 127 -8 206q-7 70 -26 170h-231v91h213l-4 32q-3 38 -3 105q0 227 106.5 355.5t294.5 128.5q117 0 192 -53.5t75 -136.5q0 -45 -28.5 -76.5t-69.5 -31.5q-51 0 -72 29.5t-14.5 90.5t-21.5 92.5t-86 31.5 q-99 0 -151 -71t-52 -207q0 -91 5 -154q4 -54 16 -135h259v-91h-251l1 -60q0 -232 -48 -387l81 -28q63 -23 112 -31.5t119 -8.5q68 0 139 35t107 86q7 10 20 10h2q5 0 10 -5t4 -10q-19 -120 -119.5 -203t-226.5 -83q-52 0 -98 16t-117 60l-80 49q-74 -131 -194 -131 q-62 0 -102 35.5t-40 91.5zM83 112q0 -32 23 -52q22 -20 57 -20q74 0 112 64q12 20 20 47l-48 27q-30 14 -70 14q-45 0 -69.5 -21t-24.5 -59z" />
<glyph unicode="&#xa4;" d="M-44 216l200 201q-84 111 -83 260q0 150 83 260l-200 201l98 98l200 -201q110 84 258 83q147 -1 260 -81l198 199l98 -98l-200 -201q84 -111 83 -260q1 -148 -83 -260l200 -201l-98 -98l-199 200q-112 -82 -259 -82t-259 82l-199 -200zM211 677q0 -129 87.5 -218.5 t213.5 -89.5t213.5 89.5t87.5 218.5t-87.5 218.5t-213.5 89.5t-213.5 -89.5t-87.5 -218.5z" />
<glyph unicode="&#xa5;" d="M-108 1317v39h249h250v-39q-80 6 -118.5 -31.5t-8.5 -92.5l263 -478l236 453q40 76 11 111.5t-131 37.5v39h201h201v-39q-72 -13 -110.5 -47t-92.5 -131l-227 -421h306v-80h-349l-9 -17v-167h358v-80h-358v-157q0 -109 32.5 -143t139.5 -35v-39h-251h-252v39 q98 2 128 35.5t30 142.5v157h-358v80h358v159l-14 25h-344v80h299l-237 421q-62 109 -100.5 143t-101.5 35z" />
<glyph unicode="&#xa6;" horiz-adv-x="410" d="M137 341h136v-683h-136v683zM137 682v683h136v-683h-136z" />
<glyph unicode="&#xa7;" d="M143 578q0 109 78 179t197 70q-77 63 -122 123q-70 93 -70 184q0 114 79 182q78 67 211 67q113 0 185.5 -56t72.5 -143q0 -46 -31 -77.5t-76 -31.5q-75 0 -91 62t45 113q40 33 2.5 61.5t-122.5 28.5q-71 0 -116.5 -41.5t-45.5 -106.5q0 -67 53 -126t224 -183 q133 -96 194.5 -188t61.5 -193q0 -109 -78 -179q-72 -65 -183 -70q70 -62 111 -117q70 -93 70 -184q0 -112 -81 -183.5t-208 -71.5q-126 0 -207 57.5t-81 147.5q0 46 31 77.5t76 31.5q74 0 94 -58t-37 -106q-44 -36 -5.5 -71.5t122.5 -35.5q80 0 131.5 44t51.5 113 q0 66 -52.5 124t-223.5 182q-135 98 -197.5 188.5t-62.5 186.5zM256 642q0 -96 133 -221t235 -125q65 0 106.5 40t41.5 102q0 79 -147 212.5t-234 133.5q-59 0 -97 -40t-38 -102z" />
<glyph unicode="&#xa8;" horiz-adv-x="682" d="M37 1172q0 43 29 72.5t71 29.5t71 -29.5t29 -72.5t-29 -72.5t-71 -29.5t-71 29.5t-29 72.5zM445 1172q0 43 29 72.5t71 29.5t71 -29.5t29 -72.5t-29 -72.5t-71 -29.5t-71 29.5t-29 72.5z" />
<glyph unicode="&#xa9;" horiz-adv-x="1556" d="M78 678q0 297 203 502t497 205t497 -205t203 -502t-203 -502t-497 -205t-497 205t-203 502zM191 678q0 -260 170.5 -439.5t416.5 -179.5t416.5 179.5t170.5 439.5t-170 439.5t-417 179.5t-417 -179.5t-170 -439.5zM390 697q0 168 127.5 280.5t317.5 112.5q67 0 144 -19 q65 -16 98 -37q11 -7 11 -25v-144h-35q-10 87 -68 135t-156 48q-133 0 -206 -91.5t-73 -258.5q0 -184 73.5 -277.5t218.5 -93.5q80 0 142.5 45.5t101.5 132.5h35l-35 -151q-3 -11 -9 -15q-35 -19 -105 -33q-79 -16 -154 -16q-205 0 -316.5 106t-111.5 301z" />
<glyph unicode="&#xaa;" horiz-adv-x="565" d="M8 942q0 60 36 101.5t118 73.5l161 63v63q0 41 -18.5 62t-54.5 21q-48 0 -75 -19.5t-16.5 -49t-8 -52t-54.5 -22.5q-26 0 -44 19t-18 46q0 59 63 97t162 38q104 0 157.5 -49.5t53.5 -146.5v-239q0 -41 5 -54.5t20 -13.5q14 0 29.5 7t28.5 18v-35q-23 -28 -56 -46t-61 -18 q-44 0 -70 27q-21 22 -25 60l-31 -25q-81 -60 -155 -60q-64 0 -105.5 37.5t-41.5 96.5zM139 997q0 -45 21.5 -70t60.5 -25q30 0 57 12t36 28t9 50v135l-74 -28q-53 -20 -81.5 -46.5t-28.5 -55.5z" />
<glyph unicode="&#xab;" d="M86 462q126 105 213 186l78 77q131 127 136 127h1q40 0 12 -49q-28 -48 -197 -274l-50 -67l4 -5q211 -272 245.5 -330t-13.5 -58h-1q-5 0 -166 156l-49 48q-87 82 -213 189zM479 462q126 105 213 186l78 77q131 127 136 127h1q40 0 12 -49q-28 -48 -197 -274l-50 -67 l4 -5q211 -272 245.5 -330t-13.5 -58h-1q-5 0 -166 156l-49 48q-87 82 -213 189z" />
<glyph unicode="&#xac;" horiz-adv-x="1155" d="M61 657v134h1032v-566h-134v432h-898z" />
<glyph unicode="&#xad;" horiz-adv-x="682" d="M80 396v129h504v-129h-504z" />
<glyph unicode="&#xae;" horiz-adv-x="1556" d="M78 678q0 297 203 502t497 205t497 -205t203 -502t-203 -502t-497 -205t-497 205t-203 502zM191 678q0 -260 170.5 -439.5t416.5 -179.5t416.5 179.5t170.5 439.5t-170 439.5t-417 179.5t-417 -179.5t-170 -439.5zM450 312v32q63 1 83 19q19 17 19 73v482q0 70 -19.5 92 t-82.5 23v32h166h181q123 0 188 -48t65 -139q0 -103 -82 -170q-36 -29 -82 -45l118 -161q65 -86 95 -119t62 -54v-17h-140q-16 0 -39 23t-48 63l-151 243q-13 3 -25 1h-77v-206q0 -56 19.5 -73.5t82.5 -18.5v-32h-166h-167zM681 681h71q81 0 120.5 46t39.5 140q0 77 -38 118 t-111 41h-82v-345z" />
<glyph unicode="&#xaf;" d="M0 1508v102h1024v-102h-1024z" />
<glyph unicode="&#xb0;" horiz-adv-x="819" d="M117 1090q0 123 84.5 208t207.5 85t208 -85t85 -208t-85 -207.5t-208 -84.5t-207.5 84.5t-84.5 207.5zM196 1090q0 -93 62 -157.5t151 -64.5q90 0 152 64.5t62 157.5q0 94 -62 158.5t-152 64.5q-89 0 -151 -64.5t-62 -158.5z" />
<glyph unicode="&#xb1;" horiz-adv-x="1155" d="M61 -2v134h1032v-134h-1032zM61 575v134h449v325h134v-325h449v-134h-449v-325h-134v325h-449z" />
<glyph unicode="&#xb2;" horiz-adv-x="614" d="M2 1139q30 117 107.5 180.5t190.5 63.5q120 0 193 -61q73 -60 73 -159q0 -91 -63 -180t-252 -267l-32 -30h245q47 0 66 10t41 45l34 -12l-38 -88l-39 -88h-516v24v25l169 180q105 112 152 186t47 128q0 70 -42 114.5t-108 44.5q-56 0 -102 -37.5t-75 -106.5z" />
<glyph unicode="&#xb3;" horiz-adv-x="614" d="M31 641q0 34 20.5 52.5t54 20.5t88 -41t87.5 -41q52 0 85 19.5t52 62.5q14 32 13 62q0 88 -67.5 135.5t-167.5 30.5l-4 60q96 25 146.5 67.5t50.5 98.5q0 48 -31 75.5t-86 27.5q-52 0 -95.5 -29t-81.5 -88l-50 34q40 93 110 144t158 51q103 0 166.5 -46t63.5 -121 q0 -62 -71 -130l-49 -40q47 -16 88 -50q85 -73 85 -189q0 -113 -115 -192t-281 -79q-86 0 -127.5 26t-41.5 79z" />
<glyph unicode="&#xb4;" horiz-adv-x="682" d="M190 1037l321 323l10 8q28 22 62 22t53 -24q16 -18 16 -41l-2 -16q-6 -30 -38 -55l-10 -7l-329 -210h-83z" />
<glyph unicode="&#xb5;" d="M74 -286q0 77 24.5 199t24.5 198v810h180v-625q0 -89 48 -138t135 -49q62 0 123 33.5t94 86.5v692h180v-736q0 -58 15.5 -85.5t49.5 -27.5q19 0 46 16t53 42v-45q-57 -61 -97.5 -82t-99.5 -21q-70 0 -107 49q-32 44 -36 126q-59 -83 -115 -125q-71 -53 -157 -53 q-106 0 -173 55q-47 38 -62 93v-16q0 -75 32 -197t32 -199.5t-24 -119t-71 -41.5t-71 41.5t-24 118.5z" />
<glyph unicode="&#xb6;" horiz-adv-x="928" d="M-44 958q0 211 93 304.5t303 93.5h570v-41l-43 -4q-84 -8 -112 -38.5t-28 -115.5v-1272q0 -85 28 -115.5t113 -37.5l42 -3v-50h-318v1630h-117v-1630h-318v50l42 4q85 8 113 39t28 116v672q-192 2 -294 102.5t-102 295.5zM110 958q0 -171 62.5 -258.5t179.5 -90.5v700 q-132 -1 -187 -79.5t-55 -271.5z" />
<glyph unicode="&#xb7;" horiz-adv-x="512" d="M143 677q0 48 33 81t81 33t81 -33t33 -81q0 -47 -33 -80t-81 -33t-81 33t-33 80z" />
<glyph unicode="&#xb8;" horiz-adv-x="682" d="M106 -414l28 62q28 -11 65 -18t62 -7q59 0 89.5 24t30.5 71q0 37 -23.5 56t-68.5 19q-26 0 -46 -2.5t-28 -6.5l-15 10l84 206h73l-49 -130l53 1q82 0 128 -38t46 -106q0 -79 -68.5 -127.5t-180.5 -48.5q-51 0 -101.5 10t-78.5 25z" />
<glyph unicode="&#xb9;" horiz-adv-x="614" d="M117 553v49q69 1 90 18q21 16 21 71v514q0 40 -16.5 44t-87.5 -20v38l130 61l131 62l9 -6v-693q0 -54 21 -71t90 -18v-49h-194h-194z" />
<glyph unicode="&#xba;" horiz-adv-x="635" d="M12 1090q0 128 87.5 210.5t223.5 82.5q131 0 215.5 -76t84.5 -195q0 -133 -89.5 -218.5t-228.5 -85.5q-128 0 -210.5 79t-82.5 203zM162 1173q0 -137 43.5 -218t116.5 -81q69 0 110 45t41 120q0 127 -43.5 202.5t-117.5 75.5q-69 0 -109.5 -39t-40.5 -105z" />
<glyph unicode="&#xbb;" d="M90.5 794q-34.5 58 13.5 58h1q5 0 166 -156l49 -48q87 -82 213 -189q-126 -105 -213 -186l-78 -77q-131 -127 -136 -127h-1q-40 0 -12 49q28 48 197 274l50 67l-4 5q-211 272 -245.5 330zM483.5 794q-34.5 58 13.5 58h1q5 0 166 -156l49 -48q87 -82 213 -189 q-126 -105 -213 -186l-78 -77q-131 -127 -136 -127h-1q-40 0 -12 49q28 48 197 274l50 67l-4 5q-211 272 -245.5 330z" />
<glyph unicode="&#xbc;" horiz-adv-x="1536" d="M289 -22l924 1405h96l-924 -1405h-96zM76 553v49q69 1 90 18q21 16 21 71v514q0 40 -16.5 44t-87.5 -20v38l130 61l131 62l9 -6v-693q0 -54 21 -71t90 -18v-49h-194h-194zM846 185v48v48l417 548h47h48v-529h112v-115h-112v-185h-144v185h-368zM938 300h276v362z" />
<glyph unicode="&#xbd;" horiz-adv-x="1536" d="M214 -22l924 1405h96l-924 -1405h-96zM63 553v49q69 1 90 18q21 16 21 71v514q0 40 -16.5 44t-87.5 -20v38l130 61l131 62l9 -6v-693q0 -54 21 -71t90 -18v-49h-194h-194zM925 586q30 117 107.5 180.5t190.5 63.5q120 0 193 -61q73 -60 73 -159q0 -91 -63 -180t-252 -267 l-32 -30h245q47 0 66 10t41 45l34 -12l-38 -88l-39 -88h-516v24v25l169 180q105 112 152 186t47 128q0 70 -42 114.5t-108 44.5q-56 0 -102 -37.5t-75 -106.5z" />
<glyph unicode="&#xbe;" horiz-adv-x="1536" d="M291 -22l924 1405h96l-924 -1405h-96zM31 641q0 34 20.5 52.5t54 20.5t88 -41t87.5 -41q52 0 85 19.5t52 62.5q14 32 13 62q0 88 -67.5 135.5t-167.5 30.5l-4 60q96 25 146.5 67.5t50.5 98.5q0 48 -31 75.5t-86 27.5q-52 0 -95.5 -29t-81.5 -88l-50 34q40 93 110 144 t158 51q103 0 166.5 -46t63.5 -121q0 -62 -71 -130l-49 -40q47 -16 88 -50q85 -73 85 -189q0 -113 -115 -192t-281 -79q-86 0 -127.5 26t-41.5 79zM846 185v48v48l417 548h47h48v-529h112v-115h-112v-185h-144v185h-368zM938 300h276v362z" />
<glyph unicode="&#xbf;" horiz-adv-x="909" d="M61 -116q0 91 45 176.5t171 233.5q54 62 85 137.5t43 169.5h36q0 -96 -19.5 -176.5t-66.5 -180.5q-65 -139 -86 -211t-21 -159q0 -113 62 -188t155 -75q112 0 169 66t-4 125q-54 52 -40 112.5t79 60.5q48 0 74.5 -33.5t26.5 -94.5q0 -126 -97 -210t-243 -84 q-170 0 -269.5 89.5t-99.5 241.5zM313 844q0 45 32 76t78 31t78 -31t32 -76t-32 -76.5t-78 -31.5t-78 31.5t-32 76.5z" />
<glyph unicode="&#xc0;" horiz-adv-x="1479" d="M31 0v39q65 1 100 35t85 143l497 1163h20h20l505 -1163q50 -109 85.5 -143t101.5 -35v-39h-262h-262v39q123 1 145 35q7 11 7 30q0 39 -32 113l-95 225h-542l-61 -154q-49 -118 -49 -173q0 -16 4 -27q18 -47 144 -49v-39h-205h-206zM441 526h469l-235 559zM457 1747 q0 23 14 39q20 26 52 26.5t63 -24.5l9 -9l322 -322h-82l-330 209l-10 8q-29 22 -36 56z" />
<glyph unicode="&#xc1;" horiz-adv-x="1479" d="M31 0v39q65 1 100 35t85 143l497 1163h20h20l505 -1163q50 -109 85.5 -143t101.5 -35v-39h-262h-262v39q123 1 145 35q7 11 7 30q0 39 -32 113l-95 225h-542l-61 -154q-49 -118 -49 -173q0 -16 4 -27q18 -47 144 -49v-39h-205h-206zM441 526h469l-235 559zM581 1472 l321 323l10 8q28 22 62 22t53 -24q16 -19 16 -41l-2 -16q-6 -30 -38 -55l-10 -7l-329 -210h-83z" />
<glyph unicode="&#xc2;" horiz-adv-x="1479" d="M31 0v39q65 1 100 35t85 143l497 1163h20h20l505 -1163q50 -109 85.5 -143t101.5 -35v-39h-262h-262v39q123 1 145 35q7 11 7 30q0 39 -32 113l-95 225h-542l-61 -154q-49 -118 -49 -173q0 -16 4 -27q18 -47 144 -49v-39h-205h-206zM441 526h469l-235 559zM415 1491 l254 340h64h64l254 -340h-60l-258 209l-254 -209h-64z" />
<glyph unicode="&#xc3;" horiz-adv-x="1479" d="M31 0v39q65 1 100 35t85 143l497 1163h20h20l505 -1163q50 -109 85.5 -143t101.5 -35v-39h-262h-262v39q123 1 145 35q7 11 7 30q0 39 -32 113l-95 225h-542l-61 -154q-49 -118 -49 -173q0 -16 4 -27q18 -47 144 -49v-39h-205h-206zM441 526h469l-235 559zM395 1524 q17 99 72 152.5t139 53.5q29 0 74.5 -16t82.5 -40q33 -21 71 -35.5t59 -14.5q37 0 66.5 28.5t52.5 87.5h59q-35 -121 -81.5 -168.5t-129.5 -47.5q-30 0 -75.5 16t-81.5 40q-34 22 -71.5 37.5t-58.5 15.5q-42 0 -73 -28.5t-46 -80.5h-59z" />
<glyph unicode="&#xc4;" horiz-adv-x="1479" d="M31 0v39q65 1 100 35t85 143l497 1163h20h20l505 -1163q50 -109 85.5 -143t101.5 -35v-39h-262h-262v39q123 1 145 35q7 11 7 30q0 39 -32 113l-95 225h-542l-61 -154q-49 -118 -49 -173q0 -16 4 -27q18 -47 144 -49v-39h-205h-206zM441 526h469l-235 559zM429 1576 q0 43 29 72.5t71 29.5t71 -29.5t29 -72.5t-29 -72.5t-71 -29.5t-71 29.5t-29 72.5zM837 1576q0 43 29 72.5t71 29.5t71 -29.5t29 -72.5t-29 -72.5t-71 -29.5t-71 29.5t-29 72.5z" />
<glyph unicode="&#xc5;" horiz-adv-x="1479" d="M31 0v39q65 1 100 35t85 143l497 1163h20h20l505 -1163q50 -109 85.5 -143t101.5 -35v-39h-262h-262v39q123 1 145 35q7 11 7 30q0 39 -32 113l-95 225h-542l-61 -154q-49 -118 -49 -173q0 -16 4 -27q18 -47 144 -49v-39h-205h-206zM441 526h469l-235 559zM517 1634 q0 86 59 145t145 59t145 -59t59 -145t-59 -145t-145 -59t-145 59t-59 145zM587 1634q0 -56 39 -94.5t95 -38.5t95 38.5t39 94.5t-39 94.5t-95 38.5t-95 -38.5t-39 -94.5z" />
<glyph unicode="&#xc6;" horiz-adv-x="1821" d="M0 0v39q59 1 94.5 35t93.5 143l469 922q55 108 28 142t-170 36v39h500h654l1 -145l1 -146l-44 1q-14 131 -74.5 171.5t-243.5 40.5h-224q-42 0 -56 -14t-14 -56v-460h232q154 0 207.5 40t58.5 160h42v-241v-241h-42q-16 129 -53 168.5t-142 39.5h-303v-506q0 -54 18 -72 t72 -18h149q214 0 297.5 48t167.5 220h50l-45 -173l-46 -173h-663h-380v39q110 2 144 35.5t34 142.5v313h-363l-119 -242q-78 -153 -63.5 -200t138.5 -49v-39h-203h-203zM488 608h325v646h-6z" />
<glyph unicode="&#xc7;" horiz-adv-x="1366" d="M57 677q0 309 195.5 507.5t499.5 198.5q144 0 319 -61q24 -8 46 -8q21 0 39 8q38 16 53 55l2 6h38l22 -461h-47q-43 179 -162.5 279.5t-289.5 100.5q-222 0 -349.5 -165.5t-127.5 -455.5q0 -289 133.5 -454.5t365.5 -165.5q132 0 244 49.5t221 155.5l37 -37 q-114 -130 -250.5 -193.5t-300.5 -63.5q-315 0 -501.5 191t-186.5 514zM544 -414l28 62q28 -11 65 -18t62 -7q59 0 89.5 24t30.5 71q0 37 -23.5 56t-68.5 19q-26 0 -46 -2.5t-28 -6.5l-15 10l84 206h73l-49 -130l53 1q82 0 128 -38t46 -106q0 -79 -68.5 -127.5t-180.5 -48.5 q-51 0 -101.5 10t-78.5 25z" />
<glyph unicode="&#xc8;" horiz-adv-x="1251" d="M25 0v39q112 2 146 35.5t34 142.5v922q0 109 -34 142.5t-146 35.5v39h389h698l3 -149l4 -149h-49q-17 136 -78 178t-244 42h-261q-44 0 -58.5 -14.5t-14.5 -58.5v-452h295q136 0 182 37t61 158h47v-237v-237h-47q-15 121 -61 158t-182 37h-295v-497q0 -56 19 -75t75 -19 h193q216 0 304.5 51t160.5 217h56l-45 -173l-46 -173h-717h-389zM337 1747q0 23 14 39q20 26 52 26.5t63 -24.5l9 -9l322 -322h-82l-330 209l-10 8q-29 22 -36 56z" />
<glyph unicode="&#xc9;" horiz-adv-x="1251" d="M25 0v39q112 2 146 35.5t34 142.5v922q0 109 -34 142.5t-146 35.5v39h389h698l3 -149l4 -149h-49q-17 136 -78 178t-244 42h-261q-44 0 -58.5 -14.5t-14.5 -58.5v-452h295q136 0 182 37t61 158h47v-237v-237h-47q-15 121 -61 158t-182 37h-295v-497q0 -56 19 -75t75 -19 h193q216 0 304.5 51t160.5 217h56l-45 -173l-46 -173h-717h-389zM461 1472l321 323l10 8q28 22 62 22t53 -24q16 -19 16 -41l-2 -16q-6 -30 -38 -55l-10 -7l-329 -210h-83z" />
<glyph unicode="&#xca;" horiz-adv-x="1251" d="M25 0v39q112 2 146 35.5t34 142.5v922q0 109 -34 142.5t-146 35.5v39h389h698l3 -149l4 -149h-49q-17 136 -78 178t-244 42h-261q-44 0 -58.5 -14.5t-14.5 -58.5v-452h295q136 0 182 37t61 158h47v-237v-237h-47q-15 121 -61 158t-182 37h-295v-497q0 -56 19 -75t75 -19 h193q216 0 304.5 51t160.5 217h56l-45 -173l-46 -173h-717h-389zM295 1491l254 340h64h64l254 -340h-60l-258 209l-254 -209h-64z" />
<glyph unicode="&#xcb;" horiz-adv-x="1251" d="M25 0v39q112 2 146 35.5t34 142.5v922q0 109 -34 142.5t-146 35.5v39h389h698l3 -149l4 -149h-49q-17 136 -78 178t-244 42h-261q-44 0 -58.5 -14.5t-14.5 -58.5v-452h295q136 0 182 37t61 158h47v-237v-237h-47q-15 121 -61 158t-182 37h-295v-497q0 -56 19 -75t75 -19 h193q216 0 304.5 51t160.5 217h56l-45 -173l-46 -173h-717h-389zM309 1576q0 43 29 72.5t71 29.5t71 -29.5t29 -72.5t-29 -72.5t-71 -29.5t-71 29.5t-29 72.5zM717 1576q0 43 29 72.5t71 29.5t71 -29.5t29 -72.5t-29 -72.5t-71 -29.5t-71 29.5t-29 72.5z" />
<glyph unicode="&#xcc;" horiz-adv-x="682" d="M37 0v39q123 2 161 36q37 33 37 142v922q0 109 -37.5 142.5t-160.5 35.5v39h302h303v-39q-123 -2 -160.5 -35.5t-37.5 -142.5v-922q0 -109 37.5 -142.5t160.5 -35.5v-39h-302h-303zM63 1747q0 23 14 39q20 26 52 26.5t63 -24.5l9 -9l322 -322h-82l-330 209l-10 8 q-29 22 -36 56z" />
<glyph unicode="&#xcd;" horiz-adv-x="682" d="M37 0v39q123 2 161 36q37 33 37 142v922q0 109 -37.5 142.5t-160.5 35.5v39h302h303v-39q-123 -2 -160.5 -35.5t-37.5 -142.5v-922q0 -109 37.5 -142.5t160.5 -35.5v-39h-302h-303zM187 1472l321 323l10 8q28 22 62 22t53 -24q16 -19 16 -41l-2 -16q-6 -30 -38 -55 l-10 -7l-329 -210h-83z" />
<glyph unicode="&#xce;" horiz-adv-x="682" d="M39 0v39q123 2 161 36q37 33 37 142v922q0 109 -37.5 142.5t-160.5 35.5v39h302h303v-39q-123 -2 -160.5 -35.5t-37.5 -142.5v-922q0 -109 37.5 -142.5t160.5 -35.5v-39h-302h-303zM23 1491l254 340h64h64l254 -340h-60l-258 209l-254 -209h-64z" />
<glyph unicode="&#xcf;" horiz-adv-x="682" d="M39 0v39q123 2 161 36q37 33 37 142v922q0 109 -37.5 142.5t-160.5 35.5v39h302h303v-39q-123 -2 -160.5 -35.5t-37.5 -142.5v-922q0 -109 37.5 -142.5t160.5 -35.5v-39h-302h-303zM37 1576q0 43 29 72.5t71 29.5t71 -29.5t29 -72.5t-29 -72.5t-71 -29.5t-71 29.5 t-29 72.5zM445 1576q0 43 29 72.5t71 29.5t71 -29.5t29 -72.5t-29 -72.5t-71 -29.5t-71 29.5t-29 72.5z" />
<glyph unicode="&#xd0;" horiz-adv-x="1479" d="M33 677v84h198v378q0 109 -34 142.5t-146 35.5v39h284h237q406 0 618.5 -174t212.5 -505q0 -317 -211 -497t-584 -180h-273h-284v39q112 2 146 35.5t34 142.5v460h-198zM440 191q0 -65 18 -87.5t73 -25.5l64 -3q279 0 431.5 157.5t152.5 444.5q0 288 -162 446t-459 158 l-47 -2q-43 -2 -57 -19t-14 -66v-433h384v-84h-384v-486z" />
<glyph unicode="&#xd1;" horiz-adv-x="1479" d="M25 1317v39h179h179l779 -977v680q0 157 -37.5 206.5t-160.5 51.5v39h243h243v-39q-123 -2 -160.5 -51t-37.5 -207v-1081h-16h-16l-905 1134v-815q0 -158 37.5 -207t160.5 -51v-39h-243h-243v39q123 2 160.5 51t37.5 207v918q-43 47 -73 67q-51 34 -127 35zM400 1524 q17 99 72 152.5t139 53.5q29 0 74.5 -16t82.5 -40q33 -21 71 -35.5t59 -14.5q37 0 66.5 28.5t52.5 87.5h59q-35 -121 -81.5 -168.5t-129.5 -47.5q-30 0 -75.5 16t-81.5 40q-34 22 -71.5 37.5t-58.5 15.5q-42 0 -73 -28.5t-46 -80.5h-59z" />
<glyph unicode="&#xd2;" horiz-adv-x="1479" d="M70 677q0 309 188 507.5t481 198.5q294 0 482 -198.5t188 -507.5t-188 -507t-482 -198q-293 0 -481 198t-188 507zM304 677q0 -295 116 -463.5t319 -168.5q204 0 320 168.5t116 463.5q0 296 -116 464.5t-320 168.5q-203 0 -319 -168.5t-116 -464.5zM463 1747q0 23 14 39 q20 26 52 26.5t63 -24.5l9 -9l322 -322h-82l-330 209l-10 8q-29 22 -36 56z" />
<glyph unicode="&#xd3;" horiz-adv-x="1479" d="M70 677q0 309 188 507.5t481 198.5q294 0 482 -198.5t188 -507.5t-188 -507t-482 -198q-293 0 -481 198t-188 507zM304 677q0 -295 116 -463.5t319 -168.5q204 0 320 168.5t116 463.5q0 296 -116 464.5t-320 168.5q-203 0 -319 -168.5t-116 -464.5zM587 1472l321 323 l10 8q28 22 62 22t53 -24q16 -19 16 -41l-2 -16q-6 -30 -38 -55l-10 -7l-329 -210h-83z" />
<glyph unicode="&#xd4;" horiz-adv-x="1479" d="M70 677q0 309 188 507.5t481 198.5q294 0 482 -198.5t188 -507.5t-188 -507t-482 -198q-293 0 -481 198t-188 507zM304 677q0 -295 116 -463.5t319 -168.5q204 0 320 168.5t116 463.5q0 296 -116 464.5t-320 168.5q-203 0 -319 -168.5t-116 -464.5zM421 1491l254 340h64 h64l254 -340h-60l-258 209l-254 -209h-64z" />
<glyph unicode="&#xd5;" horiz-adv-x="1479" d="M70 677q0 309 188 507.5t481 198.5q294 0 482 -198.5t188 -507.5t-188 -507t-482 -198q-293 0 -481 198t-188 507zM304 677q0 -295 116 -463.5t319 -168.5q204 0 320 168.5t116 463.5q0 296 -116 464.5t-320 168.5q-203 0 -319 -168.5t-116 -464.5zM401 1524 q17 99 72 152.5t139 53.5q29 0 74.5 -16t82.5 -40q33 -21 71 -35.5t59 -14.5q37 0 66.5 28.5t52.5 87.5h59q-35 -121 -81.5 -168.5t-129.5 -47.5q-30 0 -75.5 16t-81.5 40q-34 22 -71.5 37.5t-58.5 15.5q-42 0 -73 -28.5t-46 -80.5h-59z" />
<glyph unicode="&#xd6;" horiz-adv-x="1479" d="M70 677q0 309 188 507.5t481 198.5q294 0 482 -198.5t188 -507.5t-188 -507t-482 -198q-293 0 -481 198t-188 507zM304 677q0 -295 116 -463.5t319 -168.5q204 0 320 168.5t116 463.5q0 296 -116 464.5t-320 168.5q-203 0 -319 -168.5t-116 -464.5zM435 1576 q0 43 29 72.5t71 29.5t71 -29.5t29 -72.5t-29 -72.5t-71 -29.5t-71 29.5t-29 72.5zM843 1576q0 43 29 72.5t71 29.5t71 -29.5t29 -72.5t-29 -72.5t-71 -29.5t-71 29.5t-29 72.5z" />
<glyph unicode="&#xd7;" horiz-adv-x="1155" d="M78 113l406 405l-406 405l95 95l405 -406l405 406l95 -95l-406 -405l406 -405l-95 -95l-405 406l-405 -406z" />
<glyph unicode="&#xd8;" horiz-adv-x="1479" d="M70 677q0 309 188 507.5t481 198.5q208 0 364 -100l150 222h102l-185 -273q27 -22 51 -48q188 -198 188 -507t-188 -507t-482 -198q-203 0 -358 96l-156 -231h-102l189 279l-54 54q-188 198 -188 507zM304 677q1 -269 95 -434l340 502l292 432q-110 133 -292 133 q-203 0 -319 -168.5t-116 -464.5zM452 172q110 -126 287 -127q204 0 320 168.5t116 463.5q0 264 -92 427l-344 -507z" />
<glyph unicode="&#xd9;" horiz-adv-x="1479" d="M29 1317v39h296h297v-39q-123 -2 -160.5 -35.5t-37.5 -142.5v-671q0 -212 85 -309.5t269 -97.5q192 0 288 101.5t96 305.5v591q0 158 -37.5 207t-160.5 51v39h240h240v-39q-119 -2 -155.5 -51t-36.5 -207v-568q1 -261 -128 -390t-390 -129q-264 0 -391 127t-128 392v648 q0 109 -35.5 142.5t-150.5 35.5zM516 1747q0 23 14 39q20 26 52 26.5t63 -24.5l9 -9l322 -322h-82l-330 209l-10 8q-29 22 -36 56z" />
<glyph unicode="&#xda;" horiz-adv-x="1479" d="M29 1317v39h296h297v-39q-123 -2 -160.5 -35.5t-37.5 -142.5v-671q0 -212 85 -309.5t269 -97.5q192 0 288 101.5t96 305.5v591q0 158 -37.5 207t-160.5 51v39h240h240v-39q-119 -2 -155.5 -51t-36.5 -207v-568q1 -261 -128 -390t-390 -129q-264 0 -391 127t-128 392v648 q0 109 -35.5 142.5t-150.5 35.5zM640 1472l321 323l10 8q28 22 62 22t53 -24q16 -19 16 -41l-2 -16q-6 -30 -38 -55l-10 -7l-329 -210h-83z" />
<glyph unicode="&#xdb;" horiz-adv-x="1479" d="M29 1317v39h296h297v-39q-123 -2 -160.5 -35.5t-37.5 -142.5v-671q0 -212 85 -309.5t269 -97.5q192 0 288 101.5t96 305.5v591q0 158 -37.5 207t-160.5 51v39h240h240v-39q-119 -2 -155.5 -51t-36.5 -207v-568q1 -261 -128 -390t-390 -129q-264 0 -391 127t-128 392v648 q0 109 -35.5 142.5t-150.5 35.5zM474 1491l254 340h64h64l254 -340h-60l-258 209l-254 -209h-64z" />
<glyph unicode="&#xdc;" horiz-adv-x="1479" d="M29 1317v39h296h297v-39q-123 -2 -160.5 -35.5t-37.5 -142.5v-671q0 -212 85 -309.5t269 -97.5q192 0 288 101.5t96 305.5v591q0 158 -37.5 207t-160.5 51v39h240h240v-39q-119 -2 -155.5 -51t-36.5 -207v-568q1 -261 -128 -390t-390 -129q-264 0 -391 127t-128 392v648 q0 109 -35.5 142.5t-150.5 35.5zM488 1576q0 43 29 72.5t71 29.5t71 -29.5t29 -72.5t-29 -72.5t-71 -29.5t-71 29.5t-29 72.5zM896 1576q0 43 29 72.5t71 29.5t71 -29.5t29 -72.5t-29 -72.5t-71 -29.5t-71 29.5t-29 72.5z" />
<glyph unicode="&#xdd;" horiz-adv-x="1479" d="M45 1317v39h282h283v-39q-120 -2 -135 -35q-3 -6 -3 -14q0 -39 59 -129l282 -428l231 357q93 142 93 192q0 5 -1 8q-8 47 -133 49v39h219h219v-39q-78 -1 -124.5 -35t-120.5 -143l-342 -511v-411q0 -109 37.5 -142.5t160.5 -35.5v-39h-302h-303v39q123 2 160.5 35.5 t37.5 142.5v381l-367 541q-77 109 -121 143t-112 35zM582 1472l321 323l10 8q28 22 62 22t53 -24q16 -19 16 -41l-2 -16q-6 -30 -38 -55l-10 -7l-329 -210h-83z" />
<glyph unicode="&#xde;" horiz-adv-x="1139" d="M33 0v39q108 2 141 36q33 33 33 142v922q0 105 -35 140.5t-139 37.5v39h284h285v-39q-106 -2 -146 -40t-40 -138v-49h159q245 0 390 -99.5t145 -268.5q0 -194 -144 -296t-418 -102q-80 0 -132 7v-114q0 -109 35.5 -142.5t152.5 -35.5v-39h-285h-286zM416 415 q47 -11 117 -11q173 0 264 81t91 234q0 150 -99.5 220.5t-311.5 70.5l-23 -3q-23 -3 -30.5 -14t-7.5 -42v-536z" />
<glyph unicode="&#xdf;" d="M25 0v30q79 1 103 31.5t24 128.5v759q0 223 92.5 336.5t274.5 113.5q155 0 250.5 -83.5t95.5 -218.5q0 -150 -122 -247q-71 -56 -164 -79q151 -23 244 -93q135 -102 135 -296q0 -174 -100.5 -286t-257.5 -112q-95 0 -148.5 38.5t-53.5 106.5q0 42 24 71t58 29 q40 0 68 -27.5t28 -67.5q0 -48 14.5 -71.5t44.5 -23.5q72 0 103 73t31 242q0 195 -83 290q-70 80 -206 92q-25 2 -37 9t-12 21q0 13 12.5 20.5t38.5 10.5q98 10 145 59q58 60 58 201t-45.5 212.5t-136.5 71.5q-92 0 -135.5 -56t-43.5 -176v-160v-949h-149h-150z" />
<glyph unicode="&#xe0;" horiz-adv-x="909" d="M76 196q0 101 70.5 174.5t228.5 139.5l213 88v109q0 96 -38 141t-120 45q-76 0 -117 -41q-29 -29 -29 -67q0 -16 5 -33q5 -19 5 -36q0 -30 -16 -54q-26 -38 -77 -38q-36 0 -61 25.5t-25 62.5q0 94 99 162t236 68q150 0 227 -70.5t77 -208.5v-472q0 -52 13.5 -73.5 t46.5 -21.5q22 0 46.5 11t44.5 29v-54q-35 -44 -86 -72t-96 -28q-64 0 -98 40q-32 37 -34 110q-39 -39 -83 -70q-115 -82 -213 -82q-96 0 -157.5 60.5t-61.5 155.5zM257 260q0 -73 37.5 -118t98.5 -45q75 0 150 52q27 18 36 37q9 20 9 57v305l-114 -43q-104 -39 -160.5 -103 t-56.5 -142zM159 1327q0 23 14 39q20 26 52 26.5t63 -24.5l9 -9l322 -322h-82l-330 209l-10 8q-29 22 -36 56z" />
<glyph unicode="&#xe1;" horiz-adv-x="909" d="M76 196q0 101 70.5 174.5t228.5 139.5l213 88v109q0 96 -38 141t-120 45q-76 0 -117 -41q-29 -29 -29 -67q0 -16 5 -33q5 -19 5 -36q0 -30 -16 -54q-26 -38 -77 -38q-36 0 -61 25.5t-25 62.5q0 94 99 162t236 68q150 0 227 -70.5t77 -208.5v-472q0 -52 13.5 -73.5 t46.5 -21.5q22 0 46.5 11t44.5 29v-54q-35 -44 -86 -72t-96 -28q-64 0 -98 40q-32 37 -34 110q-39 -39 -83 -70q-115 -82 -213 -82q-96 0 -157.5 60.5t-61.5 155.5zM257 260q0 -73 37.5 -118t98.5 -45q75 0 150 52q27 18 36 37q9 20 9 57v305l-114 -43q-104 -39 -160.5 -103 t-56.5 -142zM283 1037l321 323l10 8q28 22 62 22t53 -24q16 -19 16 -41l-2 -16q-6 -30 -38 -55l-10 -7l-329 -210h-83z" />
<glyph unicode="&#xe2;" horiz-adv-x="909" d="M76 196q0 101 70.5 174.5t228.5 139.5l213 88v109q0 96 -38 141t-120 45q-76 0 -117 -41q-29 -29 -29 -67q0 -16 5 -33q5 -19 5 -36q0 -30 -16 -54q-26 -38 -77 -38q-36 0 -61 25.5t-25 62.5q0 94 99 162t236 68q150 0 227 -70.5t77 -208.5v-472q0 -52 13.5 -73.5 t46.5 -21.5q22 0 46.5 11t44.5 29v-54q-35 -44 -86 -72t-96 -28q-64 0 -98 40q-32 37 -34 110q-39 -39 -83 -70q-115 -82 -213 -82q-96 0 -157.5 60.5t-61.5 155.5zM257 260q0 -73 37.5 -118t98.5 -45q75 0 150 52q27 18 36 37q9 20 9 57v305l-114 -43q-104 -39 -160.5 -103 t-56.5 -142zM117 1039l254 340h64h64l254 -340h-60l-258 209l-254 -209h-64z" />
<glyph unicode="&#xe3;" horiz-adv-x="909" d="M76 196q0 101 70.5 174.5t228.5 139.5l213 88v109q0 96 -38 141t-120 45q-76 0 -117 -41q-29 -29 -29 -67q0 -16 5 -33q5 -19 5 -36q0 -30 -16 -54q-26 -38 -77 -38q-36 0 -61 25.5t-25 62.5q0 94 99 162t236 68q150 0 227 -70.5t77 -208.5v-472q0 -52 13.5 -73.5 t46.5 -21.5q22 0 46.5 11t44.5 29v-54q-35 -44 -86 -72t-96 -28q-64 0 -98 40q-32 37 -34 110q-39 -39 -83 -70q-115 -82 -213 -82q-96 0 -157.5 60.5t-61.5 155.5zM257 260q0 -73 37.5 -118t98.5 -45q75 0 150 52q27 18 36 37q9 20 9 57v305l-114 -43q-104 -39 -160.5 -103 t-56.5 -142zM97 1089q17 99 72 152.5t139 53.5q29 0 74.5 -16t82.5 -40q33 -21 71 -35.5t59 -14.5q37 0 66.5 28.5t52.5 87.5h59q-35 -121 -81.5 -168.5t-129.5 -47.5q-30 0 -75.5 16t-81.5 40q-34 22 -71.5 37.5t-58.5 15.5q-42 0 -73 -28.5t-46 -80.5h-59z" />
<glyph unicode="&#xe4;" horiz-adv-x="909" d="M76 196q0 101 70.5 174.5t228.5 139.5l213 88v109q0 96 -38 141t-120 45q-76 0 -117 -41q-29 -29 -29 -67q0 -16 5 -33q5 -19 5 -36q0 -30 -16 -54q-26 -38 -77 -38q-36 0 -61 25.5t-25 62.5q0 94 99 162t236 68q150 0 227 -70.5t77 -208.5v-472q0 -52 13.5 -73.5 t46.5 -21.5q22 0 46.5 11t44.5 29v-54q-35 -44 -86 -72t-96 -28q-64 0 -98 40q-32 37 -34 110q-39 -39 -83 -70q-115 -82 -213 -82q-96 0 -157.5 60.5t-61.5 155.5zM257 260q0 -73 37.5 -118t98.5 -45q75 0 150 52q27 18 36 37q9 20 9 57v305l-114 -43q-104 -39 -160.5 -103 t-56.5 -142zM131 1137q0 43 29 72.5t71 29.5t71 -29.5t29 -72.5t-29 -72.5t-71 -29.5t-71 29.5t-29 72.5zM539 1137q0 43 29 72.5t71 29.5t71 -29.5t29 -72.5t-29 -72.5t-71 -29.5t-71 29.5t-29 72.5z" />
<glyph unicode="&#xe5;" horiz-adv-x="909" d="M76 196q0 101 70.5 174.5t228.5 139.5l213 88v109q0 96 -38 141t-120 45q-76 0 -117 -41q-29 -29 -29 -67q0 -16 5 -33q5 -19 5 -36q0 -30 -16 -54q-26 -38 -77 -38q-36 0 -61 25.5t-25 62.5q0 94 99 162t236 68q150 0 227 -70.5t77 -208.5v-472q0 -52 13.5 -73.5 t46.5 -21.5q22 0 46.5 11t44.5 29v-54q-35 -44 -86 -72t-96 -28q-64 0 -98 40q-32 37 -34 110q-39 -39 -83 -70q-115 -82 -213 -82q-96 0 -157.5 60.5t-61.5 155.5zM257 260q0 -73 37.5 -118t98.5 -45q75 0 150 52q27 18 36 37q9 20 9 57v305l-114 -43q-104 -39 -160.5 -103 t-56.5 -142zM231 1251q0 86 59 145t145 59t145 -59t59 -145t-59 -145t-145 -59t-145 59t-59 145zM301 1251q0 -56 39 -94.5t95 -38.5t95 38.5t39 94.5t-39 94.5t-95 38.5t-95 -38.5t-39 -94.5z" />
<glyph unicode="&#xe6;" horiz-adv-x="1366" d="M78 203q0 95 69 162t237 137l181 75q9 185 -18 250.5t-112 65.5q-72 0 -108 -34.5t-29 -97.5q8 -70 -14.5 -104.5t-75.5 -34.5q-35 0 -59 26t-24 64q0 101 92.5 165.5t238.5 64.5q129 0 217 -76l21 -21q94 97 247 97t237 -107q76 -95 81 -266h-536v-14q0 -244 58 -341.5 t203 -97.5q86 0 150.5 45t137.5 156l22 -13q-72 -168 -166 -246t-225 -78q-164 0 -250 117q-13 17 -23 37q-41 -40 -90 -73q-118 -81 -223 -81t-172 62.5t-67 160.5zM259 244q0 -75 40 -121.5t105 -46.5q74 0 153 59l16 13q19 15 23 30q5 15 -3 43q-28 103 -32 189 q-3 52 0 107l-114 -43q-103 -39 -145.5 -91t-42.5 -139zM725 630h345q-5 116 -40 178q-42 76 -124 76h-3q-97 0 -139 -76q-32 -58 -39 -178z" />
<glyph unicode="&#xe7;" horiz-adv-x="909" d="M51 434q0 217 131.5 362.5t328.5 145.5q119 0 211.5 -62.5t92.5 -142.5q0 -40 -26 -65.5t-67 -25.5q-44 0 -69 28.5t-40 95t-44 90t-96 23.5q-113 0 -188.5 -105t-75.5 -261q0 -167 90.5 -279t225.5 -112q80 0 146 43.5t144 148.5l28 -17q-73 -162 -173.5 -241.5 t-231.5 -79.5q-170 0 -278.5 127.5t-108.5 326.5zM237 -414l28 62q28 -11 65 -18t62 -7q59 0 89.5 24t30.5 71q0 37 -23.5 56t-68.5 19q-26 0 -46 -2.5t-28 -6.5l-15 10l84 206h73l-49 -130l53 1q82 0 128 -38t46 -106q0 -79 -68.5 -127.5t-180.5 -48.5q-51 0 -101.5 10 t-78.5 25z" />
<glyph unicode="&#xe8;" horiz-adv-x="909" d="M51 435q0 222 118.5 364.5t302.5 142.5q164 0 262 -111q89 -99 95 -264h-631q0 -205 87.5 -326.5t234.5 -121.5q97 0 168 49.5t147 169.5l33 -20q-76 -176 -181.5 -257t-257.5 -81q-173 0 -275.5 123.5t-102.5 331.5zM201 633h419q-9 100 -46 158q-50 79 -148 79h-3 q-103 0 -164 -82q-45 -60 -58 -155zM200 1327q0 23 14 39q20 26 52 26.5t63 -24.5l9 -9l322 -322h-82l-330 209l-10 8q-29 22 -36 56z" />
<glyph unicode="&#xe9;" horiz-adv-x="909" d="M51 435q0 222 118.5 364.5t302.5 142.5q164 0 262 -111q89 -99 95 -264h-631q0 -205 87.5 -326.5t234.5 -121.5q97 0 168 49.5t147 169.5l33 -20q-76 -176 -181.5 -257t-257.5 -81q-173 0 -275.5 123.5t-102.5 331.5zM201 633h419q-9 100 -46 158q-50 79 -148 79h-3 q-103 0 -164 -82q-45 -60 -58 -155zM324 1037l321 323l10 8q28 22 62 22t53 -24q16 -19 16 -41l-2 -16q-6 -30 -38 -55l-10 -7l-329 -210h-83z" />
<glyph unicode="&#xea;" horiz-adv-x="909" d="M51 435q0 222 118.5 364.5t302.5 142.5q164 0 262 -111q89 -99 95 -264h-631q0 -205 87.5 -326.5t234.5 -121.5q97 0 168 49.5t147 169.5l33 -20q-76 -176 -181.5 -257t-257.5 -81q-173 0 -275.5 123.5t-102.5 331.5zM201 633h419q-9 100 -46 158q-50 79 -148 79h-3 q-103 0 -164 -82q-45 -60 -58 -155zM158 1039l254 340h64h64l254 -340h-60l-258 209l-254 -209h-64z" />
<glyph unicode="&#xeb;" horiz-adv-x="909" d="M51 435q0 222 118.5 364.5t302.5 142.5q164 0 262 -111q89 -99 95 -264h-631q0 -205 87.5 -326.5t234.5 -121.5q97 0 168 49.5t147 169.5l33 -20q-76 -176 -181.5 -257t-257.5 -81q-173 0 -275.5 123.5t-102.5 331.5zM201 633h419q-9 100 -46 158q-50 79 -148 79h-3 q-103 0 -164 -82q-45 -60 -58 -155zM172 1137q0 43 29 72.5t71 29.5t71 -29.5t29 -72.5t-29 -72.5t-71 -29.5t-71 29.5t-29 72.5zM580 1137q0 43 29 72.5t71 29.5t71 -29.5t29 -72.5t-29 -72.5t-71 -29.5t-71 29.5t-29 72.5z" />
<glyph unicode="&#xec;" horiz-adv-x="569" d="M16 0v30q99 2 129 33q30 30 30 127v488q0 95 -28 116.5t-124 0.5v33q92 29 158 54l157 62l9 -6v-748q0 -97 29 -127.5t123 -32.5v-30h-241h-242zM-15 1327q0 23 14 39q20 26 52 26.5t63 -24.5l9 -9l322 -322h-82l-330 209l-10 8q-29 22 -36 56z" />
<glyph unicode="&#xed;" horiz-adv-x="569" d="M33 0v30q99 2 129 33q30 30 30 127v488q0 95 -28 116.5t-124 0.5v33q92 29 158 54l157 62l9 -6v-748q0 -97 29 -127.5t123 -32.5v-30h-241h-242zM126 1037l321 323l10 8q28 22 62 22t53 -24q16 -19 16 -41l-2 -16q-6 -30 -38 -55l-10 -7l-329 -210h-83z" />
<glyph unicode="&#xee;" horiz-adv-x="569" d="M41 0v30q99 2 129 33q30 30 30 127v488q0 95 -28 116.5t-124 0.5v33q92 29 158 54l157 62l9 -6v-748q0 -97 29 -127.5t123 -32.5v-30h-241h-242zM-32 1039l254 340h64h64l254 -340h-60l-258 209l-254 -209h-64z" />
<glyph unicode="&#xef;" horiz-adv-x="569" d="M42 0v30q99 2 129 33q30 30 30 127v488q0 95 -28 116.5t-124 0.5v33q92 29 158 54l157 62l9 -6v-748q0 -97 29 -127.5t123 -32.5v-30h-241h-242zM-17 1137q0 43 29 72.5t71 29.5t71 -29.5t29 -72.5t-29 -72.5t-71 -29.5t-71 29.5t-29 72.5zM391 1137q0 43 29 72.5 t71 29.5t71 -29.5t29 -72.5t-29 -72.5t-71 -29.5t-71 29.5t-29 72.5z" />
<glyph unicode="&#xf0;" d="M59 453q0 214 124.5 351t318.5 137q144 0 256 -136q-36 164 -123 286q-35 49 -79 89l-256 -135l-68 62l251 132q-115 79 -274 111l86 49q173 -11 309 -95l194 102l68 -62l-184 -97q50 -45 96 -101q187 -235 187 -586q0 -255 -126.5 -417.5t-326.5 -162.5 q-198 0 -325.5 133t-127.5 340zM243 557q0 -238 79.5 -379t212.5 -141q112 0 179 88.5t67 237.5q0 238 -79 379.5t-213 141.5q-112 0 -179 -89t-67 -238z" />
<glyph unicode="&#xf1;" d="M33 816v33q84 24 144 44q61 20 144 51l9 -6v-161q76 73 141 115q81 50 146 50q125 0 188.5 -80.5t63.5 -237.5v-434q0 -98 23.5 -128.5t100.5 -31.5v-30h-213h-213v30q81 1 105.5 31.5t24.5 128.5v437q0 104 -38 153t-120 49q-42 0 -93 -30q-46 -27 -109 -87v-522 q0 -98 24.5 -128.5t105.5 -31.5v-30h-214h-215v30q79 1 103 32q24 30 24 128v509q1 85 -27 109q-16 14 -50 15q-23 0 -55 -7zM179 1089q17 99 72 152.5t139 53.5q29 0 74.5 -16t82.5 -40q33 -21 71 -35.5t59 -14.5q37 0 66.5 28.5t52.5 87.5h59q-35 -121 -81.5 -168.5 t-129.5 -47.5q-30 0 -75.5 16t-81.5 40q-34 22 -71.5 37.5t-58.5 15.5q-42 0 -73 -28.5t-46 -80.5h-59z" />
<glyph unicode="&#xf2;" d="M59 453q0 214 127 351.5t325 137.5t325 -133.5t127 -341.5q0 -213 -127 -350t-325 -137t-325 133t-127 340zM243 556q0 -237 79.5 -378t211.5 -141q112 0 178.5 89t66.5 238q0 238 -79 379.5t-212 141.5q-112 0 -178.5 -89.5t-66.5 -239.5zM235 1327q0 23 14 39 q20 26 52 26.5t63 -24.5l9 -9l322 -322h-82l-330 209l-10 8q-29 22 -36 56z" />
<glyph unicode="&#xf3;" d="M59 453q0 214 127 351.5t325 137.5t325 -133.5t127 -341.5q0 -213 -127 -350t-325 -137t-325 133t-127 340zM243 556q0 -237 79.5 -378t211.5 -141q112 0 178.5 89t66.5 238q0 238 -79 379.5t-212 141.5q-112 0 -178.5 -89.5t-66.5 -239.5zM359 1037l321 323l10 8 q28 22 62 22t53 -24q16 -19 16 -41l-2 -16q-6 -30 -38 -55l-10 -7l-329 -210h-83z" />
<glyph unicode="&#xf4;" d="M59 453q0 214 127 351.5t325 137.5t325 -133.5t127 -341.5q0 -213 -127 -350t-325 -137t-325 133t-127 340zM243 556q0 -237 79.5 -378t211.5 -141q112 0 178.5 89t66.5 238q0 238 -79 379.5t-212 141.5q-112 0 -178.5 -89.5t-66.5 -239.5zM193 1039l254 340h64h64 l254 -340h-60l-258 209l-254 -209h-64z" />
<glyph unicode="&#xf5;" d="M59 453q0 214 127 351.5t325 137.5t325 -133.5t127 -341.5q0 -213 -127 -350t-325 -137t-325 133t-127 340zM243 556q0 -237 79.5 -378t211.5 -141q112 0 178.5 89t66.5 238q0 238 -79 379.5t-212 141.5q-112 0 -178.5 -89.5t-66.5 -239.5zM173 1089q17 99 72 152.5 t139 53.5q29 0 74.5 -16t82.5 -40q33 -21 71 -35.5t59 -14.5q37 0 66.5 28.5t52.5 87.5h59q-35 -121 -81.5 -168.5t-129.5 -47.5q-30 0 -75.5 16t-81.5 40q-34 22 -71.5 37.5t-58.5 15.5q-42 0 -73 -28.5t-46 -80.5h-59z" />
<glyph unicode="&#xf6;" d="M59 453q0 214 127 351.5t325 137.5t325 -133.5t127 -341.5q0 -213 -127 -350t-325 -137t-325 133t-127 340zM243 556q0 -237 79.5 -378t211.5 -141q112 0 178.5 89t66.5 238q0 238 -79 379.5t-212 141.5q-112 0 -178.5 -89.5t-66.5 -239.5zM207 1137q0 43 29 72.5 t71 29.5t71 -29.5t29 -72.5t-29 -72.5t-71 -29.5t-71 29.5t-29 72.5zM615 1137q0 43 29 72.5t71 29.5t71 -29.5t29 -72.5t-29 -72.5t-71 -29.5t-71 29.5t-29 72.5z" />
<glyph unicode="&#xf7;" horiz-adv-x="1155" d="M61 451v134h1032v-134h-1032zM463 92q0 48 33 81.5t81 33.5t81 -33.5t33 -81.5t-33 -81t-81 -33t-81 33t-33 81zM463 943q0 48 33 81.5t81 33.5t81 -33.5t33 -81.5t-33 -81t-81 -33t-81 33t-33 81z" />
<glyph unicode="&#xf8;" d="M59 453q0 214 127 351.5t325 137.5q110 1 199 -42l117 224h78l-136 -259q37 -24 67 -57q127 -133 127 -341q0 -213 -127 -350t-325 -137q-103 0 -187 36l-128 -244l-79 -2l146 278q-41 28 -77 65q-127 133 -127 340zM243 561q0 -239 81 -382l4 -7l183 349l152 290 q-69 80 -171 80q-114 0 -181.5 -89.5t-67.5 -240.5zM373 110q69 -72 165 -73q114 0 181.5 89t67.5 239q-1 240 -79 383l-197 -375z" />
<glyph unicode="&#xf9;" d="M18 891v30h149h150v-645q0 -89 39 -134t116 -45q50 0 105 28q34 18 70 46q15 12 24 31t9 40v489q0 97 -28.5 127.5t-122.5 32.5v30h161h162v-700q0 -76 24 -98q21 -19 86 -19h19v-29l-141 -47l-141 -48l-9 6v167q-97 -100 -155.5 -137t-138.5 -37q-119 0 -185 75t-66 210 v467q0 98 -24 128.5t-103 31.5zM222 1327q0 23 14 39q20 26 52 26.5t63 -24.5l9 -9l322 -322h-82l-330 209l-10 8q-29 22 -36 56z" />
<glyph unicode="&#xfa;" d="M18 891v30h149h150v-645q0 -89 39 -134t116 -45q50 0 105 28q34 18 70 46q15 12 24 31t9 40v489q0 97 -28.5 127.5t-122.5 32.5v30h161h162v-700q0 -76 24 -98q21 -19 86 -19h19v-29l-141 -47l-141 -48l-9 6v167q-97 -100 -155.5 -137t-138.5 -37q-119 0 -185 75t-66 210 v467q0 98 -24 128.5t-103 31.5zM346 1037l321 323l10 8q28 22 62 22t53 -24q16 -19 16 -41l-2 -16q-6 -30 -38 -55l-10 -7l-329 -210h-83z" />
<glyph unicode="&#xfb;" d="M18 891v30h149h150v-645q0 -89 39 -134t116 -45q50 0 105 28q34 18 70 46q15 12 24 31t9 40v489q0 97 -28.5 127.5t-122.5 32.5v30h161h162v-700q0 -76 24 -98q21 -19 86 -19h19v-29l-141 -47l-141 -48l-9 6v167q-97 -100 -155.5 -137t-138.5 -37q-119 0 -185 75t-66 210 v467q0 98 -24 128.5t-103 31.5zM180 1039l254 340h64h64l254 -340h-60l-258 209l-254 -209h-64z" />
<glyph unicode="&#xfc;" d="M18 891v30h149h150v-645q0 -89 39 -134t116 -45q50 0 105 28q34 18 70 46q15 12 24 31t9 40v489q0 97 -28.5 127.5t-122.5 32.5v30h161h162v-700q0 -76 24 -98q21 -19 86 -19h19v-29l-141 -47l-141 -48l-9 6v167q-97 -100 -155.5 -137t-138.5 -37q-119 0 -185 75t-66 210 v467q0 98 -24 128.5t-103 31.5zM194 1137q0 43 29 72.5t71 29.5t71 -29.5t29 -72.5t-29 -72.5t-71 -29.5t-71 29.5t-29 72.5zM602 1137q0 43 29 72.5t71 29.5t71 -29.5t29 -72.5t-29 -72.5t-71 -29.5t-71 29.5t-29 72.5z" />
<glyph unicode="&#xfd;" d="M29 891v30h209h210v-30q-92 -4 -108 -31q-5 -9 -5 -22q0 -32 26 -91l228 -511l176 499q26 73 26 107q0 11 -3 18q-11 28 -87 31v30h137h138v-30q-38 -1 -59 -25t-53 -103l-278 -730q-99 -275 -179 -376.5t-197 -101.5q-64 0 -105 32.5t-41 82.5q0 45 25.5 69t73.5 24h6 q28 0 73 -18.5t73 -18.5q17 0 35 12.5t33 34.5q54 84 101 214l18 59l-319 685q-47 99 -76 129t-78 31zM387 1037l321 323l10 8q28 22 62 22t53 -24q16 -19 16 -41l-2 -16q-6 -30 -38 -55l-10 -7l-329 -210h-83z" />
<glyph unicode="&#xfe;" d="M10 -408q89 1 116 31.5t27 128.5v1403q0 90 -23.5 111.5t-110.5 11.5v30q87 23 149 42q63 19 149 49l9 -6v-622l31 40q110 131 265 131q149 0 245 -127t96 -325q0 -208 -118 -359t-280 -151t-227 74l-12 14v-316q0 -97 34 -127.5t146 -32.5v-35h-248h-248v35zM326 287 q0 -103 22.5 -150t83.5 -74q45 -20 99 -20q116 0 185 101t69 270q0 185 -70.5 294.5t-189.5 109.5q-103 0 -177 -84q-11 -13 -16.5 -28t-5.5 -34v-385z" />
<glyph unicode="&#xff;" d="M29 891v30h209h210v-30q-92 -4 -108 -31q-5 -9 -5 -22q0 -32 26 -91l228 -511l176 499q26 73 26 107q0 11 -3 18q-11 28 -87 31v30h137h138v-30q-38 -1 -59 -25t-53 -103l-278 -730q-99 -275 -179 -376.5t-197 -101.5q-64 0 -105 32.5t-41 82.5q0 45 25.5 69t73.5 24h6 q28 0 73 -18.5t73 -18.5q17 0 35 12.5t33 34.5q54 84 101 214l18 59l-319 685q-47 99 -76 129t-78 31zM235 1137q0 43 29 72.5t71 29.5t71 -29.5t29 -72.5t-29 -72.5t-71 -29.5t-71 29.5t-29 72.5zM643 1137q0 43 29 72.5t71 29.5t71 -29.5t29 -72.5t-29 -72.5t-71 -29.5 t-71 29.5t-29 72.5z" />
<glyph unicode="&#x131;" horiz-adv-x="569" d="M33 0v30q99 2 129 33q30 30 30 127v488q0 95 -28 116.5t-124 0.5v33q92 29 158 54l157 62l9 -6v-748q0 -97 29 -127.5t123 -32.5v-30h-241h-242z" />
<glyph unicode="&#x152;" horiz-adv-x="1821" d="M61 678q0 300 163 493q163 192 417 192l491 -7h581l3 -149l4 -149h-49q-17 136 -78 178t-244 42h-191q-43 0 -57 -14t-14 -57v-454h230q136 0 182 37t61 158h47v-237v-237h-47q-15 121 -61 158t-182 37h-230v-500q0 -55 18 -73t73 -18h114q217 0 305.5 51t159.5 217h56 l-45 -173l-46 -173h-590l-491 -6q-271 0 -425.5 182t-154.5 502zM295 678q1 -316 94 -463.5t292 -147.5q64 0 119 20q35 13 59 56t24 93v885q0 49 -24.5 92t-60.5 57q-54 21 -117 20q-180 0 -283 -163t-103 -449z" />
<glyph unicode="&#x153;" horiz-adv-x="1479" d="M61 453q0 204 121 347q121 142 294 142q182 0 299 -134l16 -19l14 21q88 132 250 132t251 -107q80 -95 86 -265h-528l-1 -11q0 -219 70 -329.5t209 -110.5q58 0 112.5 39t138.5 140l20 -12q-78 -161 -165.5 -233.5t-203.5 -72.5q-134 0 -231 135l-27 42l-22 -28 q-127 -149 -288 -149q-182 0 -298.5 133t-116.5 340zM245 543q0 -251 64 -378.5t190 -127.5q95 0 152 92.5t57 247.5q0 252 -64 380t-191 128q-95 0 -151.5 -93t-56.5 -249zM865 629h334q-4 118 -41 181q-42 75 -125 75h-3q-90 0 -129 -76q-30 -59 -36 -180z" />
<glyph unicode="&#x178;" horiz-adv-x="1479" d="M45 1317v39h282h283v-39q-120 -2 -135 -35q-3 -6 -3 -14q0 -39 59 -129l282 -428l231 357q93 142 93 192q0 5 -1 8q-8 47 -133 49v39h219h219v-39q-78 -1 -124.5 -35t-120.5 -143l-342 -511v-411q0 -109 37.5 -142.5t160.5 -35.5v-39h-302h-303v39q123 2 160.5 35.5 t37.5 142.5v381l-367 541q-77 109 -121 143t-112 35zM430 1576q0 43 29 72.5t71 29.5t71 -29.5t29 -72.5t-29 -72.5t-71 -29.5t-71 29.5t-29 72.5zM838 1576q0 43 29 72.5t71 29.5t71 -29.5t29 -72.5t-29 -72.5t-71 -29.5t-71 29.5t-29 72.5z" />
<glyph unicode="&#x2c6;" horiz-adv-x="682" d="M23 1039l254 340h64h64l254 -340h-60l-258 209l-254 -209h-64z" />
<glyph unicode="&#x2dc;" horiz-adv-x="682" d="M2 1089q17 99 72 152.5t139 53.5q29 0 74.5 -16t82.5 -40q33 -21 71 -35.5t59 -14.5q37 0 66.5 28.5t52.5 87.5h59q-35 -121 -81.5 -168.5t-129.5 -47.5q-30 0 -75.5 16t-81.5 40q-34 22 -71.5 37.5t-58.5 15.5q-42 0 -73 -28.5t-46 -80.5h-59z" />
<glyph unicode="&#x2013;" d="M0 410v101h1024v-101h-1024z" />
<glyph unicode="&#x2014;" horiz-adv-x="2048" d="M0 410v101h2048v-101h-2048z" />
<glyph unicode="&#x2018;" horiz-adv-x="682" d="M236 1080q0 81 66 169t161 135l20 -40q-95 -56 -138 -131q-19 -34 -29 -74q-5 -20 5.5 -31t31.5 -6q23 5 48 5q52 0 85.5 -29t33.5 -75q0 -51 -33 -84t-85 -33q-76 0 -121 52.5t-45 141.5z" />
<glyph unicode="&#x2019;" horiz-adv-x="682" d="M162 1267q0 51 33 84t85 33q76 0 121 -52.5t45 -141.5q0 -81 -66 -169t-161 -135l-20 40q95 56 138 131q19 34 29 74q5 20 -5.5 31t-31.5 6q-23 -5 -48 -5q-52 0 -85.5 29t-33.5 75z" />
<glyph unicode="&#x201a;" horiz-adv-x="682" d="M162 91q0 51 33 84t85 33q76 0 121 -52.5t45 -141.5q0 -81 -66 -169t-161 -135l-20 40q95 56 138 131q19 33 29 74q5 20 -5.5 31t-31.5 6q-23 -5 -48 -5q-52 0 -85.5 29t-33.5 75z" />
<glyph unicode="&#x201c;" horiz-adv-x="909" d="M88 1080q0 81 66 169t161 135l20 -40q-95 -56 -138 -131q-19 -34 -29 -74q-5 -20 5.5 -31t31.5 -6q23 5 48 5q52 0 85.5 -29t33.5 -75q0 -51 -33 -84t-85 -33q-76 0 -121 52.5t-45 141.5zM564 1080q0 81 66 169t161 135l20 -40q-95 -56 -138 -131q-19 -34 -29 -74 q-5 -20 5.5 -31t31.5 -6q23 5 48 5q52 0 85.5 -29t33.5 -75q0 -51 -33 -84t-85 -33q-76 0 -121 52.5t-45 141.5z" />
<glyph unicode="&#x201d;" horiz-adv-x="909" d="M61 1267q0 51 33 84t85 33q76 0 121 -52.5t45 -141.5q0 -81 -66 -169t-161 -135l-20 40q95 56 138 131q19 34 29 74q5 20 -5.5 31t-31.5 6q-23 -5 -48 -5q-52 0 -85.5 29t-33.5 75zM537 1267q0 51 33 84t85 33q76 0 121 -52.5t45 -141.5q0 -81 -66 -169t-161 -135l-20 40 q95 56 138 131q19 34 29 74q5 20 -5.5 31t-31.5 6q-23 -5 -48 -5q-52 0 -85.5 29t-33.5 75z" />
<glyph unicode="&#x201e;" horiz-adv-x="909" d="M92 91q0 51 33 84t85 33q76 0 121 -52.5t45 -141.5q0 -81 -66 -169t-161 -135l-20 40q95 56 138 131q19 33 29 74q5 20 -5.5 31t-31.5 6q-23 -5 -48 -5q-52 0 -85.5 29t-33.5 75zM568 91q0 51 33 84t85 33q76 0 121 -52.5t45 -141.5q0 -81 -66 -169t-161 -135l-20 40 q95 56 138 131q19 33 29 74q5 20 -5.5 31t-31.5 6q-23 -5 -48 -5q-52 0 -85.5 29t-33.5 75z" />
<glyph unicode="&#x2022;" horiz-adv-x="717" d="M82 679q0 116 80 196.5t196 80.5t196 -80.5t80 -196.5t-80 -196t-196 -80t-196 80t-80 196z" />
<glyph unicode="&#x2026;" horiz-adv-x="2048" d="M227 91q0 48 33 81t81 33t81 -33t33 -81q0 -47 -33 -80t-81 -33t-81 33t-33 80zM909 91q0 48 33 81t81 33t81 -33t33 -81q0 -47 -33 -80t-81 -33t-81 33t-33 80zM1591 91q0 48 33 81t81 33t81 -33t33 -81q0 -47 -33 -80t-81 -33t-81 33t-33 80z" />
<glyph unicode="&#x2039;" horiz-adv-x="682" d="M129 462q126 105 213 186l78 77q131 127 136 127h1q40 0 12 -49q-28 -48 -197 -274l-50 -67l4 -5q211 -272 245.5 -330t-13.5 -58h-1q-5 0 -166 156l-49 48q-87 82 -213 189z" />
<glyph unicode="&#x203a;" horiz-adv-x="682" d="M98.5 794q-34.5 58 13.5 58h1q5 0 166 -156l49 -48q87 -82 213 -189q-126 -105 -213 -186l-78 -77q-131 -127 -136 -127h-1q-40 0 -12 49q28 48 197 274l50 67l-4 5q-211 272 -245.5 330z" />
<glyph unicode="&#x20ac;" d="M14 540l16 80h108v43l3 85h-127l16 80h118q28 206 130 353q139 202 356 202q73 0 167 -46q42 -21 71 -13t41 44l5 15h38l22 -461h-47q-33 175 -115 280.5t-185 105.5q-143 0 -213 -154q-52 -115 -66 -326h418l-16 -80h-406v-64v-64h379l-16 -80h-358q14 -203 74 -322 q78 -156 232 -156q72 0 143.5 53.5t133.5 155.5l42 -42q-70 -122 -164 -189t-197 -67q-219 0 -349 187q-104 150 -125 380h-129z" />
<glyph unicode="&#x2122;" horiz-adv-x="2007" d="M61 1175v90v91h353h353v-90v-91h-39q-19 75 -51.5 107t-88.5 32h-101v-635q0 -71 15.5 -88t86.5 -23v-39h-174h-175v39q71 6 87 23q15 17 15 88v635h-99q-56 0 -88.5 -32t-51.5 -107h-42zM857 1317v39h124h125l315 -636l326 636h106h107v-41q-65 -6 -89.5 -28.5 t-24.5 -76.5v-537q0 -68 14.5 -83t87.5 -22v-39h-174h-175v39q73 7 87.5 22t14.5 83v492l-318 -640h-12h-12l-306 636v-440q0 -89 20 -118t86 -35v-39h-131h-132v39q63 6 82.5 35t19.5 118v489q0 32 -43 65t-98 42z" />
<glyph unicode="&#x2215;" horiz-adv-x="342" d="M-343 -22l924 1405h96l-924 -1405h-96z" />
<glyph unicode="&#xe000;" horiz-adv-x="920" d="M0 920h920v-920h-920v920z" />
<glyph unicode="&#xfb01;" horiz-adv-x="1139" d="M63 856v65h140q0 227 118.5 352.5t332.5 125.5q114 0 184 -40.5t70 -106.5q0 -35 -20 -56.5t-53 -21.5q-26 0 -49 18t-55 64q-36 52 -67 71.5t-76 19.5q-104 0 -158.5 -73t-54.5 -212v-141h358q53 0 107.5 6.5t81.5 16.5l9 -6v-748q0 -98 26 -128.5t110 -31.5v-30h-225 h-226v30q89 1 116 31.5t27 128.5v547q0 71 -24 95t-95 24h-265v-666q0 -98 27 -128.5t115 -31.5v-30h-226h-227v30q86 1 112.5 31.5t26.5 128.5v666h-140z" />
<glyph unicode="&#xfb02;" horiz-adv-x="1251" d="M721 1278v30q94 23 162 42t161 49l9 -6v-1203q0 -97 29 -127.5t123 -32.5v-30h-241h-242v30q99 2 129 33q30 30 30 127v965q0 91 -28 113q-18 14 -67 14q-28 0 -65 -4zM41 0v30q106 2 138.5 32.5t32.5 127.5v666h-169v65h169q0 237 92 357.5t273 120.5q87 0 146.5 -36 t59.5 -88q0 -39 -24 -63t-63 -24q-24 0 -43.5 16t-45.5 56q-30 46 -52.5 63.5t-52.5 17.5q-61 0 -89.5 -45t-28.5 -141v-234h249v-65h-249v-666q0 -97 36 -127.5t154 -32.5v-30h-266h-267z" />
<glyph unicode="&#xfb03;" horiz-adv-x="1933" d="M1397 0v30q99 2 129 33q30 30 30 127v488q0 94 -28 116q-14 11 -46 11q-31 0 -78 -10v33q92 29 158 54l157 62l9 -6v-748q0 -97 29 -127.5t123 -32.5v-30h-241h-242zM1525 1294q0 44 30 74.5t74 30.5t74 -30.5t30 -74.5t-30 -74t-74 -30t-74 30t-30 74zM723 0v30 q106 2 138.5 32.5t32.5 127.5v666h-169v65h169q0 237 92 357.5t273 120.5q87 0 146.5 -36t59.5 -88q0 -39 -24 -63t-63 -24q-24 0 -43.5 16t-45.5 56q-30 46 -52.5 63.5t-52.5 17.5q-61 0 -89.5 -45t-28.5 -141v-234h249v-65h-249v-666q0 -97 36 -127.5t154 -32.5v-30h-266 h-267zM41 0v30q106 2 138.5 32.5t32.5 127.5v666h-169v65h169q0 237 92 357.5t273 120.5q87 0 146.5 -36t59.5 -88q0 -39 -24 -63t-63 -24q-24 0 -43.5 16t-45.5 56q-30 46 -52.5 63.5t-52.5 17.5q-61 0 -89.5 -45t-28.5 -141v-234h249v-65h-249v-666q0 -97 36 -127.5 t154 -32.5v-30h-266h-267z" />
<glyph unicode="&#xfb04;" horiz-adv-x="1933" d="M1403 1278v30q94 23 162 42t161 49l9 -6v-1203q0 -97 29 -127.5t123 -32.5v-30h-241h-242v30q99 2 129 33q30 30 30 127v965q0 91 -28 113q-18 14 -67 14q-28 0 -65 -4zM723 0v30q106 2 138.5 32.5t32.5 127.5v666h-169v65h169q0 237 92 357.5t273 120.5q87 0 146.5 -36 t59.5 -88q0 -39 -24 -63t-63 -24q-24 0 -43.5 16t-45.5 56q-30 46 -52.5 63.5t-52.5 17.5q-61 0 -89.5 -45t-28.5 -141v-234h249v-65h-249v-666q0 -97 36 -127.5t154 -32.5v-30h-266h-267zM41 0v30q106 2 138.5 32.5t32.5 127.5v666h-169v65h169q0 237 92 357.5t273 120.5 q87 0 146.5 -36t59.5 -88q0 -39 -24 -63t-63 -24q-24 0 -43.5 16t-45.5 56q-30 46 -52.5 63.5t-52.5 17.5q-61 0 -89.5 -45t-28.5 -141v-234h249v-65h-249v-666q0 -97 36 -127.5t154 -32.5v-30h-266h-267z" />
<glyph horiz-adv-x="0" d="M-700 678q0 297 203 502t497 205t497 -205t203 -502t-203 -502t-497 -205t-497 205t-203 502zM-587 678q0 -260 170.5 -439.5t416.5 -179.5t416.5 179.5t170.5 439.5t-170 439.5t-417 179.5t-417 -179.5t-170 -439.5z" />
<glyph horiz-adv-x="0" d="M-380 697q0 168 127.5 280.5t317.5 112.5q67 0 144 -19q65 -16 98 -37q11 -7 11 -25v-144h-35q-10 87 -68 135t-156 48q-133 0 -206 -91.5t-73 -258.5q0 -184 73.5 -277.5t218.5 -93.5q80 0 142.5 45.5t101.5 132.5h35l-35 -151q-3 -11 -9 -15q-35 -19 -105 -33 q-79 -16 -154 -16q-205 0 -316.5 106t-111.5 301z" />
<glyph horiz-adv-x="0" d="M-700 678q0 297 203 502t497 205t497 -205t203 -502t-203 -502t-497 -205t-497 205t-203 502zM-587 678q0 -260 170.5 -439.5t416.5 -179.5t416.5 179.5t170.5 439.5t-170 439.5t-417 179.5t-417 -179.5t-170 -439.5z" />
<glyph horiz-adv-x="0" d="M-357 312v32q63 1 83 19q19 17 19 73v482q0 70 -19.5 92t-82.5 23v32h166h181q123 0 188 -48t65 -139q0 -103 -82 -170q-36 -29 -82 -45l118 -161q65 -86 95 -119t62 -54v-17h-140q-16 0 -39 23t-48 63l-151 243q-13 3 -25 1h-77v-206q0 -56 19.5 -73.5t82.5 -18.5v-32 h-166h-167zM-126 681h71q81 0 120.5 46t39.5 140q0 77 -38 118t-111 41h-82v-345z" />
<glyph horiz-adv-x="614" d="M117 553v49q69 1 90 18q21 16 21 71v514q0 40 -16.5 44t-87.5 -20v38l130 61l131 62l9 -6v-693q0 -54 21 -71t90 -18v-49h-194h-194z" />
<glyph horiz-adv-x="614" d="M14 738v48v48l417 548h47h48v-529h112v-115h-112v-185h-144v185h-368zM106 853h276v362z" />
<glyph horiz-adv-x="614" d="M117 553v49q69 1 90 18q21 16 21 71v514q0 40 -16.5 44t-87.5 -20v38l130 61l131 62l9 -6v-693q0 -54 21 -71t90 -18v-49h-194h-194z" />
<glyph horiz-adv-x="614" d="M2 1139q30 117 107.5 180.5t190.5 63.5q120 0 193 -61q73 -60 73 -159q0 -91 -63 -180t-252 -267l-32 -30h245q47 0 66 10t41 45l34 -12l-38 -88l-39 -88h-516v24v25l169 180q105 112 152 186t47 128q0 70 -42 114.5t-108 44.5q-56 0 -102 -37.5t-75 -106.5z" />
<glyph horiz-adv-x="614" d="M31 641q0 34 20.5 52.5t54 20.5t88 -41t87.5 -41q52 0 85 19.5t52 62.5q14 32 13 62q0 88 -67.5 135.5t-167.5 30.5l-4 60q96 25 146.5 67.5t50.5 98.5q0 48 -31 75.5t-86 27.5q-52 0 -95.5 -29t-81.5 -88l-50 34q40 93 110 144t158 51q103 0 166.5 -46t63.5 -121 q0 -62 -71 -130l-49 -40q47 -16 88 -50q85 -73 85 -189q0 -113 -115 -192t-281 -79q-86 0 -127.5 26t-41.5 79z" />
<glyph horiz-adv-x="614" d="M14 738v48v48l417 548h47h48v-529h112v-115h-112v-185h-144v185h-368zM106 853h276v362z" />
<glyph horiz-adv-x="0" d="M-276 273q0 23 14 39q20 26 52 26.5t63 -24.5l9 -9l322 -322h-82l-330 209l-10 8q-29 22 -36 56z" />
<glyph horiz-adv-x="0" d="M-152 -2l321 323l10 8q28 22 62 22t53 -24q16 -19 16 -41l-2 -16q-6 -30 -38 -55l-10 -7l-329 -210h-83z" />
<glyph horiz-adv-x="0" d="M-318 17l254 340h64h64l254 -340h-60l-258 209l-254 -209h-64z" />
<glyph horiz-adv-x="0" d="M-338 50q17 99 72 152.5t139 53.5q29 0 74.5 -16t82.5 -40q33 -21 71 -35.5t59 -14.5q37 0 66.5 28.5t52.5 87.5h59q-35 -121 -81.5 -168.5t-129.5 -47.5q-30 0 -75.5 16t-81.5 40q-34 22 -71.5 37.5t-58.5 15.5q-42 0 -73 -28.5t-46 -80.5h-59z" />
<glyph horiz-adv-x="0" d="M-304 102q0 43 29 72.5t71 29.5t71 -29.5t29 -72.5t-29 -72.5t-71 -29.5t-71 29.5t-29 72.5zM104 102q0 43 29 72.5t71 29.5t71 -29.5t29 -72.5t-29 -72.5t-71 -29.5t-71 29.5t-29 72.5z" />
<glyph horiz-adv-x="0" d="M-216 160q0 86 59 145t145 59t145 -59t59 -145t-59 -145t-145 -59t-145 59t-59 145zM-146 160q0 -56 39 -94.5t95 -38.5t95 38.5t39 94.5t-39 94.5t-95 38.5t-95 -38.5t-39 -94.5z" />
<glyph horiz-adv-x="0" d="M-201 -414l28 62q28 -11 65 -18t62 -7q59 0 89.5 24t30.5 71q0 37 -23.5 56t-68.5 19q-26 0 -46 -2.5t-28 -6.5l-15 10l84 206h73l-49 -130l53 1q82 0 128 -38t46 -106q0 -79 -68.5 -127.5t-180.5 -48.5q-51 0 -101.5 10t-78.5 25z" />
<glyph horiz-adv-x="0" d="M-276 288q0 23 14 39q20 26 52 26.5t63 -24.5l9 -9l322 -322h-82l-330 209l-10 8q-29 22 -36 56z" />
<glyph horiz-adv-x="0" d="M-152 -2l321 323l10 8q28 22 62 22t53 -24q16 -19 16 -41l-2 -16q-6 -30 -38 -55l-10 -7l-329 -210h-83z" />
<glyph horiz-adv-x="0" d="M-318 0l254 340h64h64l254 -340h-60l-258 209l-254 -209h-64z" />
<glyph horiz-adv-x="0" d="M-338 50q17 99 72 152.5t139 53.5q29 0 74.5 -16t82.5 -40q33 -21 71 -35.5t59 -14.5q37 0 66.5 28.5t52.5 87.5h59q-35 -121 -81.5 -168.5t-129.5 -47.5q-30 0 -75.5 16t-81.5 40q-34 22 -71.5 37.5t-58.5 15.5q-42 0 -73 -28.5t-46 -80.5h-59z" />
<glyph horiz-adv-x="0" d="M-304 98q0 43 29 72.5t71 29.5t71 -29.5t29 -72.5t-29 -72.5t-71 -29.5t-71 29.5t-29 72.5zM104 98q0 43 29 72.5t71 29.5t71 -29.5t29 -72.5t-29 -72.5t-71 -29.5t-71 29.5t-29 72.5z" />
<glyph horiz-adv-x="0" d="M-204 212q0 86 59 145t145 59t145 -59t59 -145t-59 -145t-145 -59t-145 59t-59 145zM-134 212q0 -56 39 -94.5t95 -38.5t95 38.5t39 94.5t-39 94.5t-95 38.5t-95 -38.5t-39 -94.5z" />
<glyph horiz-adv-x="0" d="M-201 -414l28 62q28 -11 65 -18t62 -7q59 0 89.5 24t30.5 71q0 37 -23.5 56t-68.5 19q-26 0 -46 -2.5t-28 -6.5l-15 10l84 206h73l-49 -130l53 1q82 0 128 -38t46 -106q0 -79 -68.5 -127.5t-180.5 -48.5q-51 0 -101.5 10t-78.5 25z" />
<glyph horiz-adv-x="0" d="M-353 1175v90v91h353h353v-90v-91h-39q-19 75 -51.5 107t-88.5 32h-101v-635q0 -71 15.5 -88t86.5 -23v-39h-174h-175v39q71 6 87 23q15 17 15 88v635h-99q-56 0 -88.5 -32t-51.5 -107h-42z" />
<glyph horiz-adv-x="0" d="M-514 1317v39h124h125l315 -636l326 636h106h107v-41q-65 -6 -89.5 -28.5t-24.5 -76.5v-537q0 -68 14.5 -83t87.5 -22v-39h-174h-175v39q73 7 87.5 22t14.5 83v492l-318 -640h-12h-12l-306 636v-440q0 -89 20 -118t86 -35v-39h-131h-132v39q63 6 82.5 35t19.5 118v489 q0 32 -43 65t-98 42z" />
</font>
</defs>
</svg>
